<svg xmlns="http://www.w3.org/2000/svg" xmlns:xlink="http://www.w3.org/1999/xlink" preserveAspectRatio="xMidYMid" width="24" height="27" viewBox="0 0 24 27">
  <defs>
    <style>

      .cls-3 {
        fill: #ffffff;
      }
    </style>
  </defs>
  <g id="icon_textsvg">
    <path d="M17.746,26.117 C17.746,26.117 17.746,24.947 17.746,24.947 C14.937,24.947 13.534,23.752 13.534,21.359 C13.534,21.359 13.534,3.380 13.534,3.380 C13.534,2.497 14.180,2.054 15.474,2.054 C19.304,2.054 21.374,4.135 21.684,8.294 C21.684,8.294 22.738,8.138 22.738,8.138 C22.738,8.138 22.738,-0.013 22.738,-0.013 C22.139,0.065 21.554,0.130 20.983,0.182 C20.410,0.235 19.851,0.260 19.306,0.260 C19.306,0.260 4.291,0.260 4.291,0.260 C3.796,0.260 3.283,0.235 2.750,0.182 C2.217,0.130 1.651,0.065 1.053,-0.013 C1.053,-0.013 0.000,8.294 0.000,8.294 C0.000,8.294 1.210,8.606 1.210,8.606 C1.729,6.370 2.522,4.700 3.589,3.595 C4.654,2.490 6.046,1.937 7.762,1.937 C9.035,1.937 9.673,2.419 9.673,3.380 C9.673,3.380 9.673,21.359 9.673,21.359 C9.673,23.752 8.281,24.947 5.500,24.947 C5.500,24.947 5.500,26.117 5.500,26.117 C5.500,26.117 17.746,26.117 17.746,26.117 Z" id="path-1" class="cls-3" fill-rule="evenodd"/>
  </g>
</svg>
