<?xml version="1.0" encoding="UTF-8" standalone="no"?>
<!-- Created with Inkscape (http://www.inkscape.org/) -->

<svg
   xmlns:dc="http://purl.org/dc/elements/1.1/"
   xmlns:cc="http://creativecommons.org/ns#"
   xmlns:rdf="http://www.w3.org/1999/02/22-rdf-syntax-ns#"
   xmlns:svg="http://www.w3.org/2000/svg"
   xmlns="http://www.w3.org/2000/svg"
   version="1.1"
   width="500"
   height="500"
   id="svg3987">
  <metadata
     id="metadata3995">
    <rdf:RDF>
      <cc:Work
         rdf:about="">
        <dc:format>image/svg+xml</dc:format>
        <dc:type
           rdf:resource="http://purl.org/dc/dcmitype/StillImage" />
        <dc:title></dc:title>
      </cc:Work>
    </rdf:RDF>
  </metadata>
  <defs
     id="defs3993" />
  <path
     d="M 484.27673,128.26421 C 494.49686,153.60983 500,182.02765 500,213.51767 c 0,41.47465 -11.00629,81.41321 -29.08805,111.36712 -24.37107,37.63441 -58.96226,56.83564 -102.20126,56.83564 -17.2956,0 -33.01887,-4.60829 -44.02516,-13.05684 -7.86163,-5.37634 -14.9371,-13.05683 -18.86792,-22.27342 -16.50943,20.73733 -43.23899,33.79416 -71.54088,33.79416 -32.2327,0 -59.74843,-11.52074 -77.04403,-35.33026 -17.29559,-21.50538 -25.94339,-51.45929 -25.94339,-86.78955 0,-35.33027 10.22012,-67.58833 30.66038,-90.6298 21.22641,-25.34563 51.88679,-39.17051 88.83647,-39.17051 22.01258,0 42.45283,9.21659 56.60378,23.04147 l 4.71698,-16.12903 53.45912,0 -11.00629,158.98618 c -0.78617,13.05683 0.78616,22.27342 5.50314,26.88172 2.35849,3.07219 6.28931,4.60829 12.57862,4.60829 47.95597,0 64.46541,-75.26882 64.46541,-112.13517 0,-44.54686 -14.93711,-81.41322 -42.45283,-108.29494 -31.44654,-31.49001 -76.25786,-46.85099 -131.28931,-46.85099 -52.67296,0 -99.0566,16.12903 -134.43396,46.85099 -40.880506,36.09831 -63.679248,87.55761 -63.679248,150.53764 0,52.99539 19.654088,101.38249 53.459118,135.9447 33.01887,32.25806 77.04403,49.92319 128.93082,49.92319 59.74843,0 105.34591,-8.44854 151.72956,-28.41781 l 9.43396,-4.6083 0,59.13979 -3.93082,1.53609 C 361.63522,490.01536 310.53459,500 246.85535,500 179.24528,500 121.06918,480.03072 77.830189,440.86022 26.72956,395.54531 0,327.95699 0,251.15207 0,178.1874 25.157233,115.97542 73.113208,70.66052 96.698113,48.3871 125,30.72197 156.44654,19.20123 189.46541,6.14439 224.84277,0 262.57862,0 c 71.54088,0 135.22012,23.04147 178.45912,65.28418 18.86792,17.66513 33.80503,39.17051 43.23899,62.98003 z m -241.3522,195.08448 c 18.86792,0 33.80503,-8.44854 43.23899,-24.57757 8.6478,-15.36098 11.00629,-37.63441 11.00629,-52.22734 0,-19.20123 -3.93082,-34.56221 -10.22012,-45.3149 -8.6478,-12.28879 -21.22642,-17.66513 -37.73585,-17.66513 -18.08176,0 -31.44654,7.68049 -40.09434,23.80952 -7.86164,13.05684 -11.79246,32.25807 -11.79246,50.69125 0,19.96927 4.71699,65.28417 45.59749,65.28417 z"
     id="path3989"
     style="fill:#fefd3e;fill-opacity:0.93333333" />
</svg>
