<?xml version="1.0" encoding="UTF-8" standalone="no"?>
<!-- Created with Inkscape (http://www.inkscape.org/) -->

<svg
   xmlns:dc="http://purl.org/dc/elements/1.1/"
   xmlns:cc="http://creativecommons.org/ns#"
   xmlns:rdf="http://www.w3.org/1999/02/22-rdf-syntax-ns#"
   xmlns:svg="http://www.w3.org/2000/svg"
   xmlns="http://www.w3.org/2000/svg"
   version="1.1"
   width="500"
   height="500"
   viewBox="0 0 500 500"
   id="Capa_1"
   xml:space="preserve"><metadata
     id="metadata3177"><rdf:RDF><cc:Work
         rdf:about=""><dc:format>image/svg+xml</dc:format><dc:type
           rdf:resource="http://purl.org/dc/dcmitype/StillImage" /><dc:title></dc:title></cc:Work></rdf:RDF></metadata><defs
     id="defs3175" /><path
     d="M 250,0 C 111.92871,0 0,111.92871 0,250 0,388.07129 111.92871,500 250,500 388.07129,500 500,388.07129 500,250 500,111.92871 388.07129,0 250,0 z m 148.46387,398.46387 c -19.29688,19.2959 -41.75391,34.44043 -66.75196,45.01367 -6.34961,2.68555 -12.79785,5.04297 -19.33691,7.07617 v -37.46777 c 0,-19.69434 -6.75391,-34.17969 -20.26367,-43.45703 8.46484,-0.81348 16.23535,-1.95313 23.31543,-3.41797 7.08008,-1.46485 14.56836,-3.58106 22.46094,-6.34766 7.89453,-2.7666 14.9746,-6.0625 21.24023,-9.88769 6.26758,-3.8252 12.28906,-8.78907 18.06641,-14.89258 5.77929,-6.10352 10.62011,-13.02051 14.52636,-20.75196 3.90625,-7.73144 7,-17.00878 9.27735,-27.83203 2.27929,-10.82324 3.41797,-22.74609 3.41797,-35.7666 0,-25.22754 -8.21875,-46.71191 -24.65821,-64.45312 7.48828,-19.53125 6.67383,-40.77149 -2.4414,-63.72071 l -6.10352,-0.73242 c -4.23047,-0.48828 -11.84082,1.30176 -22.82715,5.3711 -10.98633,4.06933 -23.31543,10.74218 -36.9873,20.01953 -19.36719,-5.3711 -39.46875,-8.05664 -60.30176,-8.05664 -20.99609,0 -41.01563,2.68554 -60.05859,8.05664 -8.62598,-5.85938 -16.80469,-10.70118 -24.53614,-14.52637 -7.73144,-3.8252 -13.91601,-6.42871 -18.55468,-7.8125 -4.63868,-1.38379 -8.95215,-2.23828 -12.93946,-2.56348 -3.9873,-0.32519 -6.55078,-0.40722 -7.69043,-0.24414 -1.13965,0.16309 -1.95312,0.3252 -2.4414,0.48828 -9.11426,23.11231 -9.92871,44.35254 -2.44141,63.72071 -16.43848,17.74121 -24.658203,39.22558 -24.658203,64.45312 0,13.02051 1.139649,24.94336 3.417973,35.7666 2.27832,10.82325 5.37109,20.10059 9.27734,27.83203 3.90625,7.73145 8.74805,14.64844 14.52637,20.75196 5.77832,6.10351 11.7998,11.06738 18.0664,14.89258 6.2666,3.82519 13.34668,7.12109 21.24024,9.88769 7.89355,2.7666 15.38086,4.88281 22.46093,6.34766 7.08008,1.46484 14.85157,2.60449 23.31543,3.41797 -13.34668,9.11425 -20.01953,23.60058 -20.01953,43.45703 v 38.19824 c -7.37207,-2.19434 -14.63867,-4.78711 -21.77734,-7.80664 C 143.28711,432.9043 120.8291,417.75977 101.5332,398.46387 82.238281,379.16895 67.092773,356.70996 56.520508,331.71191 45.584961,305.85449 40.039062,278.3623 40.039062,250 c 0,-28.3623 5.545899,-55.85449 16.483399,-81.71387 10.573242,-24.99707 25.717773,-47.45508 45.012699,-66.75097 19.29492,-19.295902 41.7539,-34.440433 66.75097,-45.012699 C 194.14551,45.584961 221.6377,40.039062 250,40.039062 c 28.3623,0 55.85449,5.545899 81.71484,16.483399 24.99805,10.573242 47.45508,25.717773 66.75196,45.012699 19.29492,19.29492 34.43945,41.7539 45.01172,66.75097 10.93554,25.85938 16.48242,53.35157 16.48242,81.71387 0,28.3623 -5.54688,55.85449 -16.4834,81.71387 -10.57227,24.99609 -25.71875,47.45605 -45.01367,66.75 z"
     id="path3141"
     style="fill:#fefd3e;fill-opacity:0.93333333" /><g
     transform="translate(0,-12)"
     id="g3143" /><g
     transform="translate(0,-12)"
     id="g3145" /><g
     transform="translate(0,-12)"
     id="g3147" /><g
     transform="translate(0,-12)"
     id="g3149" /><g
     transform="translate(0,-12)"
     id="g3151" /><g
     transform="translate(0,-12)"
     id="g3153" /><g
     transform="translate(0,-12)"
     id="g3155" /><g
     transform="translate(0,-12)"
     id="g3157" /><g
     transform="translate(0,-12)"
     id="g3159" /><g
     transform="translate(0,-12)"
     id="g3161" /><g
     transform="translate(0,-12)"
     id="g3163" /><g
     transform="translate(0,-12)"
     id="g3165" /><g
     transform="translate(0,-12)"
     id="g3167" /><g
     transform="translate(0,-12)"
     id="g3169" /><g
     transform="translate(0,-12)"
     id="g3171" /></svg>