<?xml version="1.0" encoding="UTF-8" standalone="no"?>
<!-- Created with Inkscape (http://www.inkscape.org/) -->

<svg
   xmlns:dc="http://purl.org/dc/elements/1.1/"
   xmlns:cc="http://creativecommons.org/ns#"
   xmlns:rdf="http://www.w3.org/1999/02/22-rdf-syntax-ns#"
   xmlns:svg="http://www.w3.org/2000/svg"
   xmlns="http://www.w3.org/2000/svg"
   version="1.1"
   width="500"
   height="500"
   viewBox="0 0 500 500"
   id="Layer_1"
   xml:space="preserve"><metadata
     id="metadata5856"><rdf:RDF><cc:Work
         rdf:about=""><dc:format>image/svg+xml</dc:format><dc:type
           rdf:resource="http://purl.org/dc/dcmitype/StillImage" /><dc:title></dc:title></cc:Work></rdf:RDF></metadata><defs
     id="defs5854" /><path
     d="m 497.75057,398.55092 -2.4887,-7.49998 c -5.8943,-17.52265 -25.21502,-35.7978 -42.96289,-40.61263 l -65.68921,-17.94815 c -17.81388,-4.84732 -43.22485,1.67062 -56.25833,14.70544 L 306.5783,370.97416 C 220.17783,347.62216 152.42641,279.85724 129.11118,193.45768 l 23.7742,-23.77857 c 13.03347,-13.03586 19.54916,-38.41797 14.70273,-56.23512 L 149.67573,47.710228 C 144.82931,29.925566 126.52398,10.602341 109.03808,4.771939 L 101.53949,2.250288 C 84.02006,-3.5801128 59.034521,2.316317 46.002095,15.351136 L 10.439303,50.952951 C 4.0860347,57.273847 0.02551787,75.353013 0.02551787,75.419041 -1.2183101,188.34835 43.054422,297.15036 122.92138,377.03304 c 79.67101,79.68564 188.04437,123.90152 300.626,122.95198 0.58995,0 19.18974,-3.99629 25.54196,-10.31719 l 35.56279,-35.56932 c 13.03243,-13.03482 18.92673,-38.02495 13.09844,-55.54759 z"
     id="path5850"
     style="fill:#fefd3e;fill-opacity:0.93333333" /></svg>