<?xml version="1.0" encoding="UTF-8" standalone="no"?>
<!-- Created with Inkscape (http://www.inkscape.org/) -->

<svg
   xmlns:dc="http://purl.org/dc/elements/1.1/"
   xmlns:cc="http://creativecommons.org/ns#"
   xmlns:rdf="http://www.w3.org/1999/02/22-rdf-syntax-ns#"
   xmlns:svg="http://www.w3.org/2000/svg"
   xmlns="http://www.w3.org/2000/svg"
   version="1.1"
   width="500"
   height="500"
   viewBox="0 0 500 500"
   id="svg4041"
   xml:space="preserve"><metadata
     id="metadata4053"><rdf:RDF><cc:Work
         rdf:about=""><dc:format>image/svg+xml</dc:format><dc:type
           rdf:resource="http://purl.org/dc/dcmitype/StillImage" /><dc:title></dc:title></cc:Work></rdf:RDF></metadata><defs
     id="defs4043" /><path
     d="M 0,0 0,500 500,500 500,0 0,0 z m 120.84375,80.34375 c 22.55431,0 40.84375,18.32472 40.84375,40.84375 0,22.54096 -18.28944,40.84375 -40.84375,40.84375 -22.638232,0 -40.875,-18.30279 -40.875,-40.84375 0,-22.51903 18.236768,-40.84375 40.875,-40.84375 z M 335.53125,187.375 c 71.30977,0 84.5,46.93097 84.5,107.96875 l 0,124.3125 -70.40625,0 0,-110.1875 c 0,-26.30605 -0.5114,-60.125 -36.625,-60.125 -36.68008,0 -42.28125,28.64278 -42.28125,58.1875 l 0,112.125 -70.40625,0 0,-226.625 67.5625,0 0,30.96875 0.96875,0 c 9.39557,-17.83078 32.39923,-36.625 66.6875,-36.625 z m -249.96875,5.65625 70.53125,0 0,226.625 -70.53125,0 0,-226.625 z"
     id="rect4045"
     style="fill:#fefd3e;fill-opacity:0.93333333" /></svg>