<?xml version="1.0" encoding="UTF-8" standalone="no"?>
<!-- Created with Inkscape (http://www.inkscape.org/) -->

<svg
   xmlns:dc="http://purl.org/dc/elements/1.1/"
   xmlns:cc="http://creativecommons.org/ns#"
   xmlns:rdf="http://www.w3.org/1999/02/22-rdf-syntax-ns#"
   xmlns:svg="http://www.w3.org/2000/svg"
   xmlns="http://www.w3.org/2000/svg"
   version="1.1"
   width="500"
   height="500"
   viewBox="0 0 500 500"
   id="Layer_1"
   xml:space="preserve"><metadata
     id="metadata4101"><rdf:RDF><cc:Work
         rdf:about=""><dc:format>image/svg+xml</dc:format><dc:type
           rdf:resource="http://purl.org/dc/dcmitype/StillImage" /><dc:title></dc:title></cc:Work></rdf:RDF></metadata><defs
     id="defs4099" /><path
     d="M 162.26172,500 H 121.7041 c -7.20215,-0.0303 -20.08105,-8.3623 -20.44726,-8.69727 C 36.560547,427.7041 0,340.72852 0,249.93945 0,158.90527 36.773437,71.655273 101.83691,8.026367 101.86816,7.996094 114.50195,0 121.7041,0 h 40.55762 c 14.8623,0 32.4707,10.864258 39.12402,24.200195 l 2.83789,5.707032 c 6.62207,13.27539 6.04297,34.729492 -1.3125,47.607421 l -27.25195,47.668942 c -7.38574,12.90918 -25.57422,23.68164 -40.43555,23.68164 H 108.1543 c -35.950198,62.5 -35.950198,139.74024 -0.0303,202.27051 h 27.09961 c 14.86231,0 33.05078,10.77246 40.43555,23.68164 l 27.22168,47.66895 c 7.35449,12.8789 7.96484,34.27148 1.34277,47.63769 l -2.83789,5.70703 C 194.70215,489.10547 177.12402,500 162.26172,500 z M 500,125 v 250 c 0,34.51562 -27.98438,62.5 -62.5,62.5 H 238.95312 c -1.2207,-10.95605 -3.87597,-21.63672 -8.9414,-30.51758 l -27.22168,-47.66894 c -13.0918,-22.85743 -41.47363,-39.42871 -67.56641,-39.42871 h -7.96484 c -19.71484,-44.37305 -19.71484,-95.42872 0,-139.77051 h 7.96484 c 26.09278,0 54.47364,-16.57129 67.56641,-39.42871 L 230.04199,93.0166 c 5.06641,-8.880858 7.72071,-19.592772 8.94141,-30.517577 H 437.5 C 472.01562,62.5 500,90.48438 500,125 z M 320.3125,359.375 c 0,-12.93945 -10.49805,-23.4375 -23.4375,-23.4375 -12.93945,0 -23.4375,10.49805 -23.4375,23.4375 0,12.93945 10.49805,23.4375 23.4375,23.4375 12.93945,0 23.4375,-10.49805 23.4375,-23.4375 z m 0,-62.5 c 0,-12.93945 -10.49805,-23.4375 -23.4375,-23.4375 -12.93945,0 -23.4375,10.49805 -23.4375,23.4375 0,12.93945 10.49805,23.4375 23.4375,23.4375 12.93945,0 23.4375,-10.49805 23.4375,-23.4375 z m 0,-62.5 c 0,-12.93945 -10.49805,-23.4375 -23.4375,-23.4375 -12.93945,0 -23.4375,10.49805 -23.4375,23.4375 0,12.93945 10.49805,23.4375 23.4375,23.4375 12.93945,0 23.4375,-10.49805 23.4375,-23.4375 z m 62.5,125 c 0,-12.93945 -10.49805,-23.4375 -23.4375,-23.4375 -12.93945,0 -23.4375,10.49805 -23.4375,23.4375 0,12.93945 10.49805,23.4375 23.4375,23.4375 12.93945,0 23.4375,-10.49805 23.4375,-23.4375 z m 0,-62.5 c 0,-12.93945 -10.49805,-23.4375 -23.4375,-23.4375 -12.93945,0 -23.4375,10.49805 -23.4375,23.4375 0,12.93945 10.49805,23.4375 23.4375,23.4375 12.93945,0 23.4375,-10.49805 23.4375,-23.4375 z m 0,-62.5 c 0,-12.93945 -10.49805,-23.4375 -23.4375,-23.4375 -12.93945,0 -23.4375,10.49805 -23.4375,23.4375 0,12.93945 10.49805,23.4375 23.4375,23.4375 12.93945,0 23.4375,-10.49805 23.4375,-23.4375 z m 62.5,125 c 0,-12.93945 -10.49805,-23.4375 -23.4375,-23.4375 -12.93945,0 -23.4375,10.49805 -23.4375,23.4375 0,12.93945 10.49805,23.4375 23.4375,23.4375 12.93945,0 23.4375,-10.49805 23.4375,-23.4375 z m 0,-62.5 c 0,-12.93945 -10.49805,-23.4375 -23.4375,-23.4375 -12.93945,0 -23.4375,10.49805 -23.4375,23.4375 0,12.93945 10.49805,23.4375 23.4375,23.4375 12.93945,0 23.4375,-10.49805 23.4375,-23.4375 z m 0,-62.5 c 0,-12.93945 -10.49805,-23.4375 -23.4375,-23.4375 -12.93945,0 -23.4375,10.49805 -23.4375,23.4375 0,12.93945 10.49805,23.4375 23.4375,23.4375 12.93945,0 23.4375,-10.49805 23.4375,-23.4375 z m 0,-93.75 c 0,-8.63672 -6.98828,-15.625 -15.625,-15.625 h -140.625 c -8.63672,0 -15.625,6.98828 -15.625,15.625 v 31.25 c 0,8.63672 6.98828,15.625 15.625,15.625 h 140.625 c 8.63672,0 15.625,-6.98828 15.625,-15.625 v -31.25 z"
     id="path4095"
     style="fill:#fefd3e;fill-opacity:0.93333333" /></svg>