<?xml version="1.0" encoding="UTF-8" standalone="no"?>
<!DOCTYPE svg PUBLIC "-//W3C//DTD SVG 20010904//EN"
              "http://www.w3.org/TR/2001/REC-SVG-20010904/DTD/svg10.dtd">

<svg xmlns="http://www.w3.org/2000/svg"
     width="3.30667in" height="4.06001in"
     viewBox="0 0 992 1218">
  <path id="Επιλογή"
        fill="none" stroke="black" stroke-width="1"
        d="M 489.29,274.86
           C 490.38,271.62 486.96,269.07 485.56,266.83
             483.75,263.97 483.85,261.16 484.80,258.00
             485.43,255.89 486.52,253.80 487.80,252.01
             488.73,250.71 489.87,249.39 491.09,248.35
             501.86,239.17 507.51,258.61 509.00,266.00
             506.31,267.84 501.17,270.73 502.91,274.77
             503.39,275.89 504.14,276.41 505.34,276.48
             505.34,276.48 511.00,275.00 511.00,275.00
             514.70,283.88 510.22,291.63 523.00,293.00
             522.59,294.91 522.47,296.19 521.26,297.87
             516.78,304.10 511.51,300.45 507.74,296.00
             506.67,294.73 504.50,291.43 502.41,292.34
             500.01,293.37 502.73,298.35 503.20,300.00
             504.64,305.02 502.66,315.13 496.96,316.66
             494.28,317.39 492.28,314.94 490.97,312.98
             487.51,307.83 487.51,303.65 489.54,298.00
             489.97,296.64 491.67,293.23 489.54,292.34
             487.78,291.55 485.98,293.92 485.00,295.06
             482.41,298.05 479.68,302.10 475.02,300.92
             470.98,299.91 469.77,296.60 469.00,293.00
             481.78,291.63 477.30,283.88 481.00,274.86
             483.27,275.64 488.15,278.00 489.29,274.86 Z
           M 469.02,322.57
           C 467.77,321.63 466.42,320.26 465.51,318.98
             461.24,313.01 465.18,309.50 468.96,310.66
             472.17,311.64 473.59,315.03 474.32,318.00
             474.91,320.42 474.95,322.54 475.00,325.00
             472.39,324.44 471.25,324.26 469.02,322.57 Z
           M 517.68,318.00
           C 518.41,315.03 519.83,311.64 523.04,310.66
             526.82,309.50 530.76,313.01 526.49,318.98
             525.58,320.26 524.23,321.63 522.98,322.57
             520.75,324.26 519.61,324.44 517.00,325.00
             517.05,322.54 517.09,320.42 517.68,318.00 Z
           M 485.00,319.00
           C 485.00,319.00 486.00,326.00 486.00,326.00
             482.40,323.68 482.12,323.21 483.00,319.00
             483.00,319.00 485.00,319.00 485.00,319.00 Z
           M 509.00,319.00
           C 509.88,323.21 509.60,323.68 506.00,326.00
             506.00,326.00 507.00,319.00 507.00,319.00
             507.00,319.00 509.00,319.00 509.00,319.00 Z
           M 452.09,332.83
           C 449.21,331.26 445.72,326.60 446.84,323.15
             447.98,319.66 452.82,319.08 455.91,324.06
             456.63,325.21 457.15,326.69 457.47,328.00
             457.95,329.98 457.95,331.98 458.00,334.00
             455.86,333.87 454.06,333.90 452.09,332.83 Z
           M 534.53,328.00
           C 534.85,326.69 535.37,325.21 536.09,324.06
             539.18,319.08 544.02,319.66 545.16,323.15
             546.28,326.60 542.79,331.26 539.91,332.83
             537.94,333.90 536.14,333.87 534.00,334.00
             534.05,331.98 534.05,329.98 534.53,328.00 Z
           M 497.00,328.00
           C 498.81,332.22 499.25,333.57 495.00,336.00
             495.00,336.00 495.00,328.00 495.00,328.00
             495.00,328.00 497.00,328.00 497.00,328.00 Z
           M 469.00,334.00
           C 465.43,332.78 465.50,332.42 464.00,329.00
             467.60,330.19 467.69,330.46 469.00,334.00 Z
           M 528.00,329.00
           C 526.50,332.42 526.57,332.78 523.00,334.00
             524.31,330.46 524.40,330.19 528.00,329.00 Z
           M 440.10,341.64
           C 437.89,340.24 435.69,337.86 435.82,335.05
             435.99,331.53 439.93,329.94 443.30,334.15
             444.15,335.20 444.85,336.76 445.37,338.00
             446.23,340.10 446.60,341.79 447.00,344.00
             444.42,343.52 442.38,343.07 440.10,341.64 Z
           M 546.68,338.00
           C 547.22,336.77 548.01,335.19 548.85,334.15
             552.34,329.78 556.02,331.75 556.18,335.05
             556.31,337.86 554.11,340.24 551.90,341.64
             549.62,343.07 547.58,343.52 545.00,344.00
             545.41,341.72 545.74,340.16 546.68,338.00 Z
           M 481.00,340.00
           C 481.00,340.00 478.00,336.00 478.00,336.00
             478.00,336.00 481.00,340.00 481.00,340.00 Z
           M 514.00,336.00
           C 514.00,336.00 511.00,340.00 511.00,340.00
             511.00,340.00 512.00,336.00 512.00,336.00
             512.00,336.00 514.00,336.00 514.00,336.00 Z
           M 392.00,346.95
           C 381.86,345.74 388.97,336.83 394.28,343.28
             395.33,344.56 395.49,345.54 396.00,346.95
             396.00,346.95 392.00,346.95 392.00,346.95 Z
           M 597.72,343.31
           C 602.83,337.36 610.25,345.73 600.00,346.95
             600.00,346.95 596.00,346.95 596.00,346.95
             596.50,345.57 596.66,344.55 597.72,343.31 Z
           M 469.00,348.00
           C 465.07,346.54 464.71,346.13 464.00,342.00
             467.93,343.46 468.29,343.87 469.00,348.00 Z
           M 528.00,342.00
           C 527.29,346.13 526.93,346.54 523.00,348.00
             523.71,343.87 524.07,343.46 528.00,342.00 Z
           M 479.64,462.98
           C 478.22,465.36 473.89,469.92 471.15,466.42
             469.71,464.50 470.65,461.13 471.15,459.00
             472.64,452.11 472.99,451.16 473.00,444.00
             473.02,432.17 473.31,416.27 469.96,405.00
             466.18,392.24 456.24,376.87 462.19,364.00
             467.21,353.12 484.38,345.18 496.00,345.18
             508.91,345.18 526.92,354.04 530.95,367.00
             534.42,378.15 525.36,393.81 522.04,405.00
             518.74,416.10 518.87,433.26 519.00,445.00
             519.08,451.45 520.14,453.97 521.00,460.00
             521.53,461.91 522.11,464.74 521.00,466.42
             518.76,469.09 515.18,466.74 513.57,464.85
             510.01,460.71 510.01,455.13 510.00,450.00
             510.00,450.00 510.00,443.00 510.00,443.00
             510.00,443.00 507.00,443.00 507.00,443.00
             507.00,443.00 506.00,458.00 506.00,458.00
             506.00,458.00 503.00,458.00 503.00,458.00
             502.89,446.21 501.48,445.69 496.00,436.00
             490.52,445.69 489.11,446.21 489.00,458.00
             489.00,458.00 486.00,458.00 486.00,458.00
             486.00,458.00 485.00,443.00 485.00,443.00
             485.00,443.00 482.00,443.00 482.00,443.00
             482.00,449.36 482.94,457.41 479.64,462.98 Z
           M 414.00,351.00
           C 414.00,351.00 405.00,350.00 405.00,350.00
             408.46,345.09 410.75,347.03 414.00,351.00 Z
           M 587.00,350.00
           C 587.00,350.00 578.00,351.00 578.00,351.00
             581.25,347.03 583.54,345.09 587.00,350.00 Z
           M 425.60,354.78
           C 424.23,352.94 423.65,349.67 426.31,348.66
             431.80,346.57 435.26,355.10 436.00,359.00
             432.30,358.66 428.00,358.00 425.60,354.78 Z
           M 561.10,349.60
           C 562.99,348.31 566.30,347.58 567.34,350.31
             569.63,356.30 559.95,358.64 556.00,359.00
             556.71,355.30 557.80,351.87 561.10,349.60 Z
           M 460.00,356.00
           C 456.07,354.54 455.71,354.13 455.00,350.00
             458.41,352.07 458.64,352.24 460.00,356.00 Z
           M 532.00,356.00
           C 532.00,356.00 536.00,350.00 536.00,350.00
             537.16,353.95 535.46,354.72 532.00,356.00 Z
           M 383.00,359.68
           C 381.77,359.92 380.19,359.78 379.02,359.68
             373.62,357.81 374.52,353.94 378.06,352.61
             380.71,351.62 383.80,352.68 385.86,354.43
             387.69,355.97 388.02,356.98 389.00,359.00
             386.87,359.52 385.23,359.93 383.00,359.68 Z
           M 606.14,354.43
           C 608.20,352.68 611.29,351.62 613.94,352.61
             617.48,353.94 618.38,357.81 612.98,359.68
             611.81,359.78 610.23,359.92 609.00,359.68
             606.77,359.93 605.13,359.52 603.00,359.00
             603.98,356.98 604.31,355.97 606.14,354.43 Z
           M 408.13,376.00
           C 405.76,373.21 401.06,367.59 400.47,364.00
             399.50,358.08 405.41,356.69 410.00,357.19
             418.57,358.11 425.71,364.04 432.00,369.43
             455.21,389.30 467.35,420.77 467.00,451.00
             466.94,455.52 465.54,469.29 463.07,472.71
             461.97,474.22 461.44,474.20 460.00,475.00
             459.65,467.88 458.62,465.52 453.00,461.00
             453.00,461.00 454.44,493.00 454.44,493.00
             454.44,493.00 451.00,500.00 451.00,500.00
             445.10,491.30 449.16,484.93 440.00,475.00
             441.08,480.74 444.16,493.85 443.90,499.00
             443.76,501.64 442.91,506.68 439.91,507.55
             437.07,508.37 435.84,505.08 435.30,502.98
             433.17,494.71 431.19,487.91 427.72,480.00
             422.60,468.34 413.43,454.03 403.91,445.61
             398.31,440.66 381.89,430.06 378.93,424.99
             376.11,420.14 374.70,405.15 385.00,405.29
             390.35,405.36 401.23,412.14 406.00,415.00
             404.11,408.38 400.41,403.22 394.96,399.01
             390.97,395.94 383.28,391.57 381.41,387.00
             379.00,381.12 386.00,371.10 394.00,372.57
             404.05,374.42 409.12,387.06 421.00,394.00
             417.40,386.62 413.36,382.16 408.13,376.00 Z
           M 528.31,471.78
           C 524.97,466.17 524.92,447.92 525.00,441.00
             525.10,432.41 527.66,425.03 530.33,417.00
             536.92,397.24 542.76,384.52 559.00,370.29
             565.53,364.56 573.05,358.22 582.00,357.18
             585.91,356.73 591.48,356.91 591.75,362.04
             591.94,365.83 588.55,370.16 586.33,373.00
             580.25,380.78 575.57,384.63 571.00,394.00
             581.69,388.26 587.49,374.51 598.00,372.57
             605.91,371.12 613.80,381.40 610.11,387.99
             607.72,392.23 600.06,396.50 596.09,399.75
             591.15,403.79 587.75,408.89 586.00,415.00
             590.77,412.14 601.65,405.36 607.00,405.29
             617.29,405.15 616.10,420.63 612.91,425.96
             610.44,430.10 600.42,436.05 596.00,439.37
             587.19,446.00 579.66,453.83 573.52,463.00
             567.13,472.53 562.57,483.18 558.86,494.00
             557.80,497.10 556.76,505.58 554.49,507.12
             550.36,509.93 548.45,502.70 548.18,500.00
             547.60,494.37 550.84,481.16 552.00,475.00
             542.84,484.93 546.90,491.30 541.00,500.00
             541.00,500.00 537.56,493.00 537.56,493.00
             537.56,493.00 539.00,461.00 539.00,461.00
             533.38,465.52 532.35,467.88 532.00,475.00
             530.29,473.94 529.42,473.64 528.31,471.78 Z
           M 451.00,365.00
           C 451.00,365.00 446.00,360.00 446.00,360.00
             449.31,361.06 449.94,361.69 451.00,365.00 Z
           M 546.00,360.00
           C 546.00,360.00 541.00,365.00 541.00,365.00
             542.16,361.35 542.35,361.16 546.00,360.00 Z
           M 392.00,366.00
           C 392.00,366.00 386.00,363.00 386.00,363.00
             389.59,363.29 389.81,363.08 392.00,366.00 Z
           M 606.00,363.00
           C 606.00,363.00 600.00,366.00 600.00,366.00
             602.19,363.08 602.41,363.29 606.00,363.00 Z
           M 363.40,367.32
           C 365.28,362.63 372.21,365.27 374.96,367.32
             376.79,368.87 377.66,370.18 379.00,372.00
             375.79,372.78 360.29,374.80 363.40,367.32 Z
           M 623.00,364.79
           C 627.23,364.22 629.73,366.99 628.60,369.79
             626.68,374.53 616.80,372.92 613.00,372.00
             615.62,368.44 618.33,365.41 623.00,364.79 Z
           M 354.08,384.57
           C 353.47,383.54 353.48,382.34 354.08,381.30
             355.97,378.01 361.24,379.35 364.00,380.53
             366.14,381.45 368.05,382.75 370.00,384.00
             366.84,386.05 356.50,388.71 354.08,384.57 Z
           M 628.00,380.55
           C 630.74,379.34 636.05,378.01 637.92,381.31
             638.51,382.36 638.51,383.64 637.92,384.69
             635.60,388.78 625.09,386.01 622.00,384.00
             622.00,384.00 628.00,380.55 628.00,380.55 Z
           M 378.00,396.00
           C 378.00,396.00 371.00,396.00 371.00,396.00
             373.50,392.48 375.19,393.31 378.00,396.00 Z
           M 621.00,396.00
           C 621.00,396.00 614.00,396.00 614.00,396.00
             616.81,393.31 618.50,392.48 621.00,396.00 Z
           M 355.00,401.57
           C 351.74,402.45 340.80,402.87 345.78,396.31
             349.72,391.11 358.69,395.32 362.00,399.00
             362.00,399.00 355.00,401.57 355.00,401.57 Z
           M 646.22,396.31
           C 651.20,402.87 640.26,402.45 637.00,401.57
             637.00,401.57 630.00,399.00 630.00,399.00
             633.31,395.32 642.28,391.11 646.22,396.31 Z
           M 368.00,416.00
           C 368.00,416.00 358.00,415.00 358.00,415.00
             361.70,408.68 365.57,409.12 368.00,416.00 Z
           M 634.00,415.00
           C 634.00,415.00 624.00,416.00 624.00,416.00
             626.43,409.12 630.30,408.68 634.00,415.00 Z
           M 319.61,426.26
           C 316.95,423.54 319.32,418.49 325.00,419.32
             329.74,420.01 333.38,424.37 336.00,428.00
             332.34,428.00 322.08,428.78 319.61,426.26 Z
           M 667.00,419.29
           C 670.33,418.75 674.80,420.66 673.34,424.78
             671.75,429.32 660.05,428.00 656.00,428.00
             658.66,424.32 662.23,420.08 667.00,419.29 Z
           M 344.03,442.96
           C 341.28,437.64 346.77,428.83 352.01,427.17
             354.99,426.23 359.20,427.18 362.00,428.36
             362.00,428.36 370.00,432.70 370.00,432.70
             386.75,441.90 396.47,450.13 408.54,465.00
             419.32,478.28 425.98,491.61 426.00,509.00
             426.01,518.51 424.96,519.76 424.08,528.00
             424.08,528.00 424.08,540.00 424.08,540.00
             413.67,534.11 421.21,529.99 410.00,521.00
             412.94,529.83 417.17,536.99 413.00,546.00
             404.06,541.35 408.52,535.79 397.00,529.00
             400.99,540.20 408.16,546.97 405.00,560.00
             397.07,555.54 395.84,548.81 390.48,542.00
             385.67,535.88 370.45,521.09 364.00,516.75
             359.89,513.99 348.77,508.50 344.00,506.42
             340.16,504.75 334.29,502.71 332.17,498.90
             329.79,494.59 331.31,485.67 336.19,483.60
             338.31,482.70 346.26,483.00 349.00,483.00
             341.86,473.13 337.31,475.67 333.74,470.79
             330.37,466.19 331.60,453.86 338.04,452.33
             342.07,451.37 350.96,455.22 356.00,456.00
             350.50,446.62 346.45,447.66 344.03,442.96 Z
           M 567.92,528.00
           C 567.92,528.00 566.00,510.00 566.00,510.00
             565.98,491.88 572.18,478.90 583.46,465.00
             595.53,450.13 605.25,441.90 622.00,432.70
             622.00,432.70 630.00,428.36 630.00,428.36
             632.80,427.18 637.01,426.23 639.99,427.17
             645.23,428.83 650.72,437.64 647.97,442.96
             645.55,447.66 641.50,446.62 636.00,456.00
             641.04,455.22 649.93,451.37 653.96,452.33
             660.40,453.86 661.63,466.19 658.26,470.79
             654.69,475.67 650.14,473.13 643.00,483.00
             645.74,483.00 653.69,482.70 655.81,483.60
             660.69,485.67 662.21,494.59 659.83,498.90
             657.71,502.71 651.84,504.75 648.00,506.42
             643.23,508.50 632.11,513.99 628.00,516.75
             621.55,521.09 606.33,535.88 601.52,542.00
             596.16,548.81 594.93,555.54 587.00,560.00
             583.84,546.97 591.01,540.20 595.00,529.00
             583.48,535.79 587.94,541.35 579.00,546.00
             574.83,536.99 579.06,529.83 582.00,521.00
             570.79,529.99 578.33,534.11 567.92,540.00
             567.92,540.00 567.92,528.00 567.92,528.00 Z
           M 317.00,447.86
           C 315.52,447.98 313.45,447.98 312.04,447.86
             307.02,446.11 306.45,441.09 309.43,439.02
             313.03,436.53 319.13,439.50 321.78,442.21
             323.74,444.22 324.13,445.46 325.00,447.86
             325.00,447.86 317.00,447.86 317.00,447.86 Z
           M 335.00,442.00
           C 335.00,442.00 329.00,438.00 329.00,438.00
             329.00,438.00 335.00,442.00 335.00,442.00 Z
           M 663.00,438.00
           C 663.00,438.00 657.00,442.00 657.00,442.00
             657.00,442.00 663.00,438.00 663.00,438.00 Z
           M 669.42,443.10
           C 672.11,439.82 679.73,435.78 683.39,439.60
             684.28,440.53 684.59,441.71 684.42,442.98
             683.71,448.41 677.01,447.99 673.00,448.00
             673.00,448.00 667.00,448.00 667.00,448.00
             667.71,445.91 667.95,444.90 669.42,443.10 Z
           M 325.00,461.00
           C 320.86,460.66 320.09,460.71 318.00,457.00
             322.09,457.67 322.31,457.85 325.00,461.00 Z
           M 674.00,457.00
           C 671.91,460.71 671.14,460.66 667.00,461.00
             669.69,457.85 669.91,457.67 674.00,457.00 Z
           M 310.00,472.84
           C 305.88,473.95 295.51,474.67 297.84,467.10
             299.83,460.69 315.36,462.03 318.00,470.00
             318.00,470.00 310.00,472.84 310.00,472.84 Z
           M 675.59,466.93
           C 678.00,464.46 691.93,459.66 694.16,466.93
             696.45,474.67 686.21,473.97 682.00,472.84
             682.00,472.84 674.00,470.00 674.00,470.00
             674.48,468.59 674.39,468.00 675.59,466.93 Z
           M 508.35,476.10
           C 513.41,482.75 512.27,497.67 501.00,501.20
             489.92,504.67 481.01,497.41 481.01,486.00
             481.01,483.15 481.12,480.61 482.45,478.02
             484.60,473.85 487.84,472.21 492.00,470.64
             498.18,469.42 504.35,470.85 508.35,476.10 Z
           M 324.00,481.00
           C 324.00,481.00 324.00,483.00 324.00,483.00
             324.00,483.00 314.00,484.00 314.00,484.00
             317.52,479.49 318.66,478.71 324.00,481.00 Z
           M 678.00,484.00
           C 678.00,484.00 668.00,483.00 668.00,483.00
             668.00,483.00 668.00,481.00 668.00,481.00
             673.34,478.71 674.48,479.49 678.00,484.00 Z
           M 469.82,491.00
           C 466.32,498.56 469.65,504.93 465.70,506.83
             461.66,508.77 460.21,502.87 460.48,500.00
             460.95,495.14 464.22,485.65 468.21,482.74
             470.16,481.31 471.73,481.26 474.00,481.00
             472.68,486.26 471.90,486.49 469.82,491.00 Z
           M 523.79,482.74
           C 527.78,485.65 531.05,495.14 531.52,500.00
             531.79,502.87 530.34,508.77 526.30,506.83
             522.35,504.93 525.68,498.56 522.18,491.00
             520.10,486.49 519.32,486.26 518.00,481.00
             520.27,481.26 521.84,481.31 523.79,482.74 Z
           M 310.00,502.30
           C 307.46,503.93 303.12,506.47 300.04,506.45
             295.20,506.42 293.42,500.93 295.33,497.05
             299.18,489.26 313.46,491.54 319.00,496.00
             319.00,496.00 310.00,502.30 310.00,502.30 Z
           M 691.98,492.89
           C 696.68,494.76 699.37,500.43 695.99,504.57
             690.94,510.75 676.59,499.00 673.00,495.00
             678.50,492.94 686.22,490.61 691.98,492.89 Z
           M 481.91,520.00
           C 481.20,529.88 474.83,540.87 466.00,545.59
             452.97,552.55 434.43,542.61 432.66,534.00
             431.96,530.57 434.96,523.00 436.99,520.21
             439.34,516.97 446.85,510.58 451.00,511.99
             454.27,513.10 457.66,517.45 462.00,517.09
             466.98,516.68 470.59,510.94 474.32,508.16
             481.30,507.51 482.30,514.60 481.91,520.00 Z
           M 529.00,516.93
           C 536.51,518.68 538.97,507.83 547.00,513.28
             552.93,517.30 560.97,526.04 559.34,534.00
             557.86,541.23 546.67,546.56 540.00,547.68
             525.86,550.03 515.62,539.57 511.52,527.00
             509.28,520.13 508.31,512.62 514.98,508.17
             520.85,507.61 523.23,515.58 529.00,516.93 Z
           M 459.00,533.00
           C 467.41,532.59 470.46,530.73 474.00,523.00
             466.78,524.14 462.58,526.48 459.00,533.00 Z
           M 504.67,529.09
           C 515.52,541.18 518.00,564.35 518.00,580.00
             525.37,574.29 525.10,571.70 530.76,565.01
             540.79,553.17 568.02,537.93 578.91,557.00
             580.27,559.37 580.59,561.37 581.00,564.00
             578.45,564.07 576.37,563.99 574.00,565.17
             563.51,570.43 560.74,588.36 549.91,600.00
             547.07,603.04 543.32,606.73 539.00,607.30
             535.94,607.69 531.09,606.30 533.08,602.27
             533.08,602.27 540.61,594.00 540.61,594.00
             543.33,590.57 546.08,585.05 547.84,581.00
             548.79,578.84 552.49,571.57 547.84,571.03
             544.23,570.61 536.24,579.23 534.02,582.01
             534.02,582.01 523.37,598.61 523.37,598.61
             521.33,600.81 508.31,606.79 505.00,608.00
             504.32,611.58 500.20,617.80 496.00,617.80
             491.80,617.80 487.68,611.58 487.00,608.00
             483.69,606.79 470.67,600.81 468.63,598.61
             468.63,598.61 457.98,582.01 457.98,582.01
             455.76,579.23 447.77,570.61 444.16,571.03
             439.51,571.57 443.21,578.84 444.16,581.00
             445.92,585.05 448.67,590.57 451.39,594.00
             451.39,594.00 458.92,602.27 458.92,602.27
             460.91,606.30 456.06,607.69 453.00,607.30
             448.68,606.73 444.93,603.04 442.09,600.00
             431.26,588.36 428.49,570.43 418.00,565.17
             415.63,563.99 413.55,564.07 411.00,564.00
             411.41,561.37 411.73,559.37 413.09,557.00
             423.98,537.93 451.21,553.17 461.24,565.01
             466.90,571.70 466.63,574.29 474.00,580.00
             474.00,564.70 476.51,543.75 485.64,531.00
             488.24,527.36 491.58,524.81 495.00,522.00
             498.51,523.97 501.95,526.06 504.67,529.09 Z
           M 518.00,523.00
           C 521.54,530.73 524.59,532.59 533.00,533.00
             529.42,526.48 525.22,524.14 518.00,523.00 Z
           M 389.06,606.00
           C 389.41,608.50 389.65,614.71 385.16,612.84
             383.70,612.22 381.09,608.89 379.88,607.58
             375.45,602.76 371.85,598.15 366.00,594.90
             354.70,588.62 344.88,589.65 340.21,585.57
             335.52,581.49 334.19,576.01 334.80,570.17
             335.53,563.20 329.51,564.79 325.97,557.00
             322.21,548.72 326.27,545.54 325.97,542.17
             325.71,539.18 322.14,537.24 322.36,533.00
             322.79,524.63 335.55,522.78 342.00,523.04
             347.80,523.27 353.66,525.44 359.00,527.60
             377.62,535.15 386.55,543.59 394.42,562.00
             398.20,570.85 399.97,576.28 400.00,586.00
             400.00,586.00 393.00,582.00 393.00,582.00
             395.67,590.00 398.01,593.68 395.00,602.00
             395.00,602.00 393.00,602.00 393.00,602.00
             389.20,593.95 388.11,589.78 380.00,585.00
             384.42,592.37 387.86,597.26 389.06,606.00 Z
           M 614.00,538.33
           C 618.86,534.30 627.09,530.00 633.00,527.60
             638.34,525.44 644.20,523.27 650.00,523.04
             656.45,522.78 669.21,524.63 669.64,533.00
             669.85,536.98 666.51,539.23 666.51,543.00
             666.51,546.35 669.72,550.28 665.56,557.98
             662.81,563.09 658.72,563.84 657.46,566.67
             656.33,568.99 658.02,571.55 657.46,575.00
             655.14,591.49 638.08,587.57 625.00,595.48
             619.78,598.64 616.19,603.15 612.12,607.58
             610.91,608.89 608.30,612.22 606.84,612.84
             602.35,614.71 602.59,608.50 602.94,606.00
             604.14,597.26 607.58,592.37 612.00,585.00
             603.89,589.78 602.80,593.95 599.00,602.00
             599.00,602.00 597.00,602.00 597.00,602.00
             593.99,593.68 596.33,590.00 599.00,582.00
             599.00,582.00 592.00,587.00 592.00,587.00
             592.05,569.42 600.33,549.64 614.00,538.33 Z
           M 299.70,537.00
           C 299.70,537.00 295.00,541.95 295.00,541.95
             293.22,543.61 290.59,546.02 288.02,546.12
             283.29,546.30 282.44,540.42 283.74,537.00
             286.76,529.06 297.72,527.30 305.00,529.00
             303.35,532.20 302.06,534.23 299.70,537.00 Z
           M 708.26,537.00
           C 709.68,540.83 708.14,546.28 703.96,546.12
             701.41,546.02 698.76,543.59 697.00,541.95
             697.00,541.95 692.30,537.00 692.30,537.00
             689.94,534.23 688.65,532.20 687.00,529.00
             694.26,527.24 705.27,528.98 708.26,537.00 Z
           M 250.83,544.70
           C 249.21,547.96 242.19,546.14 246.44,541.08
             248.95,540.50 252.46,541.43 250.83,544.70 Z
           M 304.18,547.67
           C 303.53,546.58 303.67,545.30 304.18,544.22
             306.40,540.03 312.36,540.97 316.00,542.00
             314.47,544.77 307.28,553.40 304.18,547.67 Z
           M 687.82,544.22
           C 688.33,545.30 688.47,546.58 687.82,547.67
             684.72,553.40 677.53,544.77 676.00,542.00
             679.64,540.97 685.60,540.03 687.82,544.22 Z
           M 496.00,602.00
           C 510.93,583.17 509.95,562.11 496.00,543.00
             482.10,561.82 481.30,583.47 496.00,602.00 Z
           M 292.96,574.66
           C 289.15,577.05 284.49,577.32 283.33,571.98
             281.28,562.54 297.36,558.94 304.00,558.00
             302.51,563.95 298.26,571.33 292.96,574.66 Z
           M 708.67,571.98
           C 707.51,577.32 702.85,577.05 699.04,574.66
             693.74,571.33 689.49,563.95 688.00,558.00
             694.64,558.94 710.72,562.54 708.67,571.98 Z
           M 250.00,583.96
           C 246.75,584.14 242.07,583.96 239.74,581.35
             235.26,576.34 241.45,568.16 246.02,565.83
             257.81,564.58 262.86,583.21 250.00,583.96 Z
           M 318.58,569.77
           C 310.98,578.20 303.42,567.34 315.00,565.11
             315.00,565.11 321.00,565.11 321.00,565.11
             320.32,566.98 320.06,568.13 318.58,569.77 Z
           M 677.00,565.11
           C 688.58,567.34 681.02,578.20 673.42,569.77
             671.94,568.13 671.68,566.98 671.00,565.11
             671.00,565.11 677.00,565.11 677.00,565.11 Z
           M 327.89,586.00
           C 327.46,587.23 326.78,588.81 326.01,589.85
             323.01,593.94 318.85,592.98 317.84,589.85
             316.71,586.31 320.13,582.77 323.02,581.31
             325.03,580.30 326.83,580.20 329.00,580.00
             328.80,582.23 328.65,583.85 327.89,586.00 Z
           M 668.98,581.31
           C 671.87,582.77 675.29,586.31 674.16,589.85
             673.15,592.98 668.99,593.94 665.99,589.85
             665.22,588.81 664.54,587.23 664.11,586.00
             663.35,583.85 663.20,582.23 663.00,580.00
             665.17,580.20 666.97,580.30 668.98,581.31 Z
           M 310.00,590.00
           C 309.20,591.98 307.93,595.23 306.79,596.94
             302.78,602.97 297.79,600.25 297.16,595.00
             296.56,589.89 299.84,585.96 304.01,583.53
             307.14,581.71 309.49,581.32 313.00,581.00
             312.13,584.73 311.41,586.49 310.00,590.00 Z
           M 689.91,584.80
           C 692.69,586.90 695.32,590.34 695.13,594.00
             694.96,597.37 692.06,601.83 688.21,599.92
             685.48,598.57 683.16,592.77 682.01,590.00
             680.61,586.62 679.84,584.58 679.00,581.00
             683.08,581.58 686.51,582.23 689.91,584.80 Z
           M 252.69,591.74
           C 255.57,594.12 255.27,598.64 251.77,600.26
             245.10,603.36 236.26,596.11 245.06,590.74
             247.81,590.13 250.28,589.75 252.69,591.74 Z
           M 409.60,634.00
           C 409.60,634.00 403.57,667.00 403.57,667.00
             403.51,685.90 419.84,707.88 439.00,710.70
             460.69,713.90 480.73,697.14 488.57,678.00
             491.37,671.09 494.39,661.54 488.57,655.23
             487.05,653.56 485.28,652.55 483.00,652.41
             480.89,652.28 478.02,653.35 476.00,654.00
             476.00,654.00 476.00,644.00 476.00,644.00
             476.00,644.00 467.00,652.00 467.00,652.00
             467.00,652.00 466.00,639.00 466.00,639.00
             459.21,646.89 462.14,646.73 461.87,654.00
             461.62,660.73 457.32,665.48 467.00,671.00
             464.91,676.76 462.71,676.85 457.00,677.00
             463.55,686.34 453.62,685.34 447.00,686.39
             444.00,686.56 440.98,687.83 438.02,686.39
             431.22,683.75 433.21,676.73 424.00,674.00
             424.00,674.00 423.47,663.00 423.47,663.00
             423.47,663.00 420.85,654.00 420.85,654.00
             420.85,654.00 424.13,644.00 424.13,644.00
             424.13,644.00 426.16,635.09 426.16,635.09
             426.16,635.09 438.00,624.00 438.00,624.00
             438.00,624.00 435.00,623.00 435.00,623.00
             441.15,615.33 447.12,617.00 456.00,617.00
             453.79,606.50 464.73,608.92 472.00,609.00
             486.79,609.18 490.71,617.01 496.00,629.00
             500.44,618.94 503.57,611.14 516.00,609.30
             519.88,608.73 533.77,607.95 535.97,611.43
             537.04,613.21 536.39,615.15 535.97,617.00
             544.88,617.00 550.85,615.33 557.00,623.00
             557.00,623.00 554.00,624.00 554.00,624.00
             554.00,624.00 565.99,635.09 565.99,635.09
             565.99,635.09 568.61,645.00 568.61,645.00
             568.61,645.00 571.15,655.00 571.15,655.00
             571.15,655.00 568.18,664.00 568.18,664.00
             568.18,664.00 568.18,674.00 568.18,674.00
             558.79,676.73 560.78,683.75 553.98,686.39
             551.02,687.83 548.00,686.56 545.00,686.39
             538.38,685.34 528.45,686.34 535.00,677.00
             529.29,676.85 527.09,676.76 525.00,671.00
             534.17,666.40 530.71,660.48 530.20,655.00
             529.46,647.12 533.28,647.47 526.00,639.00
             526.00,639.00 525.00,652.00 525.00,652.00
             525.00,652.00 516.00,644.00 516.00,644.00
             516.00,644.00 516.00,654.00 516.00,654.00
             513.98,653.35 511.11,652.28 509.00,652.41
             506.72,652.55 504.95,653.56 503.43,655.23
             497.61,661.54 500.63,671.09 503.43,678.00
             511.27,697.14 531.31,713.90 553.00,710.70
             572.16,707.88 588.49,685.90 588.43,667.00
             588.43,667.00 582.40,634.00 582.40,634.00
             580.42,624.09 576.11,601.01 589.00,597.00
             589.83,601.53 595.65,605.20 593.00,609.25
             598.21,611.96 604.29,627.56 608.37,633.00
             617.81,645.56 626.33,659.79 626.96,676.00
             627.37,686.37 622.77,695.97 618.25,705.00
             604.83,731.76 583.09,747.14 553.00,747.00
             542.98,746.95 531.47,744.56 523.00,739.04
             517.38,735.37 510.93,727.54 507.04,722.00
             502.80,715.98 498.48,709.97 496.00,703.00
             491.09,713.96 484.71,724.57 476.00,732.96
             471.54,737.26 465.78,741.26 460.00,743.54
             446.92,748.70 424.91,748.22 412.00,742.66
             396.14,735.84 384.32,723.63 375.60,709.00
             370.66,700.71 364.47,685.75 365.18,676.00
             366.54,657.35 373.49,646.42 384.37,632.00
             388.40,626.67 394.58,612.94 399.75,610.25
             397.10,606.20 402.17,601.56 403.00,597.00
             415.89,601.01 411.58,624.09 409.60,634.00 Z
           M 313.88,621.57
           C 306.28,613.05 315.18,596.09 330.00,599.00
             328.85,603.57 328.23,605.61 324.00,608.00
             325.83,617.07 319.89,628.31 313.88,621.57 Z
           M 678.12,621.57
           C 672.11,628.31 666.17,617.07 668.00,608.00
             663.77,605.61 663.15,603.57 662.00,599.00
             676.82,596.09 685.72,613.05 678.12,621.57 Z
           M 369.00,609.54
           C 375.91,615.15 384.48,620.67 375.66,629.78
             374.07,631.42 372.93,631.94 371.00,633.00
             371.99,630.15 374.75,624.76 373.77,622.02
             370.97,614.23 352.21,609.56 351.09,620.00
             350.90,621.80 352.27,624.36 353.00,626.00
             359.29,620.07 360.26,620.09 368.00,617.00
             367.74,620.06 367.40,623.25 365.86,625.98
             356.58,642.56 335.87,624.39 345.65,613.39
             348.15,610.58 353.45,609.51 357.00,608.00
             352.99,605.99 352.46,605.22 351.00,601.00
             360.77,601.22 361.78,603.68 369.00,609.54 Z
           M 616.34,629.78
           C 607.52,620.67 616.09,615.15 623.00,609.54
             630.22,603.68 631.23,601.22 641.00,601.00
             639.47,605.45 638.63,606.08 635.00,609.00
             637.72,609.39 640.55,609.77 642.98,611.14
             657.37,619.20 641.61,640.43 629.11,629.61
             627.53,628.24 626.51,626.89 625.65,625.00
             624.50,622.49 624.23,619.71 624.00,617.00
             631.74,620.09 632.71,620.07 639.00,626.00
             639.73,624.36 641.10,621.80 640.91,620.00
             639.79,609.56 621.03,614.23 618.23,622.02
             617.25,624.76 620.01,630.15 621.00,633.00
             619.07,631.94 617.93,631.42 616.34,629.78 Z
           M 266.00,612.30
           C 268.70,612.74 272.20,613.73 272.46,617.01
             272.75,620.69 268.88,622.22 266.00,622.96
             259.43,624.64 251.76,625.03 245.00,625.00
             240.48,624.98 230.86,624.13 227.06,621.86
             224.51,620.34 222.21,617.31 224.62,614.56
             227.51,611.25 239.30,612.09 244.00,611.42
             244.00,611.42 266.00,612.30 266.00,612.30 Z
           M 241.00,617.00
           C 241.00,617.00 241.00,619.00 241.00,619.00
             241.00,619.00 255.00,619.00 255.00,619.00
             255.00,619.00 255.00,617.00 255.00,617.00
             255.00,617.00 241.00,617.00 241.00,617.00 Z
           M 345.11,642.56
           C 351.05,647.25 356.08,641.20 362.00,642.00
             354.59,646.82 344.21,652.42 336.11,645.58
             333.49,643.37 331.97,640.39 331.56,637.00
             331.03,632.79 333.05,627.20 334.00,623.00
             346.62,627.36 336.38,635.66 345.11,642.56 Z
           M 644.00,644.09
           C 656.18,640.62 645.11,627.45 658.00,623.00
             659.33,628.92 662.04,635.04 659.35,641.00
             653.76,653.38 637.35,648.86 630.00,641.00
             633.92,642.11 640.06,645.22 644.00,644.09 Z
           M 234.90,658.11
           C 229.55,652.82 224.38,652.40 219.97,659.02
             216.40,664.36 216.63,668.14 215.82,674.00
             215.53,676.10 214.78,679.66 212.59,680.60
             210.21,681.62 207.97,679.50 206.51,677.89
             203.07,674.09 200.69,669.44 198.21,665.01
             196.11,661.28 192.89,658.38 192.21,654.00
             190.77,644.62 197.36,634.01 206.00,630.48
             209.63,629.00 213.14,628.91 217.00,629.02
             226.42,629.27 233.96,634.79 239.61,642.00
             242.20,645.30 245.02,652.80 248.00,652.80
             251.42,652.80 253.42,644.81 258.47,639.09
             267.09,629.31 285.57,624.50 295.96,634.13
             301.37,639.15 305.74,648.53 303.35,655.96
             303.35,655.96 296.21,668.00 296.21,668.00
             294.36,671.36 287.98,682.14 283.30,680.34
             281.03,679.48 280.60,676.08 280.29,674.00
             279.55,669.07 279.14,663.30 276.28,659.02
             271.74,652.25 266.49,652.73 261.10,658.10
             256.80,662.39 252.36,673.10 249.00,679.00
             249.00,679.00 247.00,679.00 247.00,679.00
             243.67,673.15 239.16,662.32 234.90,658.11 Z
           M 200.00,650.00
           C 204.46,649.25 205.25,648.46 206.00,644.00
             202.04,644.66 200.66,646.04 200.00,650.00 Z
           M 290.00,644.00
           C 290.66,647.96 292.04,649.34 296.00,650.00
             295.28,645.69 294.31,644.72 290.00,644.00 Z
           M 209.00,658.00
           C 214.12,657.14 214.59,656.03 215.00,651.00
             210.00,652.10 209.42,652.95 209.00,658.00 Z
           M 281.00,651.00
           C 281.41,656.03 281.88,657.14 287.00,658.00
             286.58,652.95 286.00,652.10 281.00,651.00 Z
           M 381.00,685.00
           C 383.31,694.24 387.85,697.66 392.66,705.00
             396.01,710.13 394.21,712.16 396.74,715.91
             399.93,720.65 415.32,728.27 421.00,731.00
             421.00,731.00 419.00,737.00 419.00,737.00
             419.00,737.00 431.00,737.53 431.00,737.53
             431.00,737.53 440.00,736.08 440.00,736.08
             444.17,736.06 445.79,738.26 450.00,737.11
             454.05,735.99 459.01,731.47 463.00,729.40
             467.41,727.11 470.71,727.32 473.37,724.57
             473.37,724.57 480.63,712.00 480.63,712.00
             483.50,708.00 487.53,705.11 489.92,701.00
             491.84,697.70 492.06,692.32 496.00,691.00
             496.00,691.00 496.00,687.00 496.00,687.00
             502.29,705.03 505.98,704.11 511.90,713.00
             514.18,716.43 516.73,722.94 519.53,725.28
             522.13,727.45 525.17,727.19 530.00,729.95
             533.53,731.97 538.24,736.07 542.00,737.11
             546.21,738.26 547.83,736.06 552.00,736.08
             552.00,736.08 561.00,737.53 561.00,737.53
             561.00,737.53 572.96,737.00 572.96,737.00
             572.50,734.96 571.81,733.23 572.96,731.21
             575.12,727.20 586.44,724.43 592.89,718.53
             598.29,713.61 595.73,711.44 598.85,706.00
             601.48,701.44 606.97,695.88 608.76,691.00
             610.45,686.39 608.14,685.12 607.30,681.00
             606.05,674.95 608.70,671.60 604.00,665.00
             604.00,665.00 601.00,686.00 601.00,686.00
             601.00,686.00 595.00,685.00 595.00,685.00
             591.75,698.36 596.97,688.46 589.00,707.00
             589.00,707.00 583.00,705.00 583.00,705.00
             580.82,711.22 575.60,720.06 569.00,722.43
             566.31,723.20 564.57,722.03 561.00,722.43
             557.85,723.04 554.20,724.85 551.00,724.53
             551.00,724.53 544.00,722.38 544.00,722.38
             540.52,721.90 537.67,723.92 533.02,721.55
             528.45,719.21 527.89,715.92 525.53,713.87
             523.12,711.78 520.23,711.79 517.22,708.78
             514.45,705.99 513.86,702.11 511.57,699.00
             511.57,699.00 505.53,692.00 505.53,692.00
             500.45,685.40 498.15,677.13 497.00,669.00
             497.00,669.00 495.00,669.00 495.00,669.00
             493.85,677.13 491.55,685.40 486.47,692.00
             486.47,692.00 480.43,699.00 480.43,699.00
             478.14,702.11 477.55,705.99 474.78,708.78
             471.77,711.79 468.88,711.78 466.47,713.87
             464.11,715.92 463.55,719.21 458.98,721.55
             454.33,723.92 451.48,721.90 448.00,722.38
             448.00,722.38 441.00,724.53 441.00,724.53
             437.80,724.85 434.15,723.04 431.00,722.43
             427.43,722.03 425.69,723.20 423.00,722.43
             416.40,720.06 411.18,711.22 409.00,705.00
             409.00,705.00 403.00,707.00 403.00,707.00
             395.03,688.46 400.25,698.36 397.00,685.00
             397.00,685.00 391.00,686.00 391.00,686.00
             391.00,686.00 388.00,665.00 388.00,665.00
             381.64,672.95 388.91,677.40 381.00,685.00 Z
           M 240.00,710.00
           C 230.90,700.79 221.52,694.26 222.04,680.00
             222.25,674.35 223.84,669.73 229.00,667.00
             229.00,667.00 241.69,687.00 241.69,687.00
             242.93,689.19 245.02,693.96 248.00,693.96
             250.98,693.96 253.07,689.19 254.31,687.00
             254.31,687.00 267.00,667.00 267.00,667.00
             272.16,669.73 273.75,674.35 273.96,680.00
             274.48,694.26 265.10,700.79 256.00,710.00
             252.93,713.11 251.65,714.50 249.00,718.00
             249.00,718.00 247.00,718.00 247.00,718.00
             244.35,714.50 243.07,713.11 240.00,710.00 Z
           M 184.00,716.54
           C 179.83,717.98 173.42,721.54 169.00,720.53
             161.30,718.77 160.91,709.53 164.70,704.02
             172.24,693.05 187.09,696.23 193.00,707.00
             190.87,706.60 185.98,705.37 184.08,705.89
             180.56,706.84 180.94,710.16 184.08,711.79
             190.01,714.87 194.60,707.09 200.00,715.00
             194.20,715.00 189.63,714.61 184.00,716.54 Z
           M 331.30,704.02
           C 335.09,709.53 334.70,718.77 327.00,720.53
             322.58,721.54 316.17,717.98 312.00,716.54
             306.37,714.61 301.80,715.00 296.00,715.00
             301.40,707.09 305.99,714.87 311.92,711.79
             315.06,710.16 315.44,706.84 311.92,705.89
             310.02,705.37 305.13,706.60 303.00,707.00
             308.91,696.23 323.76,693.05 331.30,704.02 Z
           M 225.28,738.57
           C 223.82,735.94 225.99,731.41 230.02,731.62
             238.64,732.06 241.69,747.78 230.02,751.18
             220.97,753.81 211.69,743.38 211.12,735.00
             210.50,726.00 218.51,718.52 227.00,717.31
             230.38,716.82 232.98,717.29 235.99,718.92
             238.83,720.45 240.79,722.28 242.47,725.04
             244.48,728.34 246.12,733.23 247.00,737.00
             247.00,737.00 249.00,737.00 249.00,737.00
             250.74,729.57 253.61,721.83 261.00,718.41
             270.89,713.85 284.14,722.32 284.88,733.00
             285.79,746.08 267.96,758.87 260.01,746.89
             255.01,739.38 261.80,729.83 267.79,731.84
             268.97,732.24 269.91,733.14 270.50,734.22
             273.13,739.02 268.46,740.58 265.00,742.00
             266.96,742.89 269.83,744.52 272.00,744.13
             273.87,743.79 275.54,742.31 276.77,740.94
             284.81,732.03 273.13,723.06 268.00,723.06
             256.16,723.06 252.76,741.98 254.33,751.00
             254.83,753.90 256.65,757.57 256.57,759.96
             256.46,763.10 254.35,764.51 253.13,767.09
             251.44,770.67 252.42,778.37 248.00,778.37
             243.58,778.37 244.56,770.67 242.87,767.09
             242.87,767.09 239.76,761.83 239.76,761.83
             238.60,758.26 240.93,755.29 241.67,751.00
             242.65,745.40 242.12,738.16 239.67,733.00
             237.89,729.25 234.98,725.24 231.00,723.66
             224.85,721.22 217.79,727.78 216.55,733.00
             215.50,737.41 220.34,744.39 225.00,744.18
             227.27,744.08 229.27,742.27 231.00,741.00
             228.93,740.75 226.44,740.67 225.28,738.57 Z
           M 511.00,737.91
           C 520.31,746.67 532.65,751.74 540.61,762.00
             546.82,770.01 546.32,779.35 537.99,785.68
             531.23,790.81 531.31,783.26 525.96,779.74
             521.06,776.52 514.13,778.47 510.11,782.22
             500.78,790.94 510.01,802.65 510.80,811.00
             511.23,815.47 509.42,820.28 507.03,824.00
             505.11,826.98 498.95,834.65 495.00,833.66
             492.92,833.14 489.56,829.61 488.10,828.00
             483.36,822.78 480.16,816.17 481.47,809.00
             483.02,800.48 490.10,791.11 482.77,783.11
             478.45,778.38 470.48,776.08 465.11,780.43
             461.47,783.38 461.06,787.37 457.87,787.37
             454.32,787.37 444.71,779.18 447.64,769.00
             450.40,759.37 462.12,751.81 470.00,746.48
             478.98,740.42 490.20,730.78 495.00,721.00
             501.26,724.10 505.03,732.29 511.00,737.91 Z
           M 124.00,746.66
           C 134.59,753.54 145.23,757.94 158.00,758.00
             165.39,758.03 169.21,758.39 171.00,750.00
             171.00,750.00 187.00,755.49 187.00,755.49
             187.00,755.49 201.00,757.61 201.00,757.61
             210.98,759.46 225.89,765.62 232.79,773.09
             242.31,783.39 245.39,804.48 231.99,813.01
             225.92,816.87 218.84,816.66 213.04,812.35
             208.46,808.95 204.98,801.36 208.74,796.14
             211.86,791.81 219.27,791.36 221.17,797.05
             222.05,799.67 220.74,803.43 220.00,806.00
             225.50,805.08 231.12,801.97 232.34,796.00
             233.65,789.60 225.89,778.01 216.00,779.23
             211.20,779.81 207.83,783.35 204.01,782.30
             199.43,781.03 198.02,774.85 192.00,775.49
             184.73,776.27 177.51,786.06 168.00,788.00
             167.97,785.44 168.21,779.54 164.18,779.82
             160.77,780.07 162.41,785.26 161.70,787.81
             160.82,791.00 157.90,791.86 155.00,792.54
             151.33,793.39 144.54,794.61 141.04,793.27
             134.16,790.62 137.01,786.16 126.00,788.00
             126.00,788.00 131.00,795.00 131.00,795.00
             131.00,795.00 127.00,799.00 127.00,799.00
             127.00,799.00 147.00,799.00 147.00,799.00
             142.21,804.60 136.05,806.01 129.00,807.00
             108.94,809.81 83.81,795.55 82.00,774.00
             84.86,774.99 93.17,778.77 95.69,777.65
             99.19,776.10 98.00,761.75 98.00,758.00
             105.67,762.12 107.57,766.89 114.00,770.79
             122.05,775.67 129.10,775.00 138.00,775.00
             128.51,767.32 124.32,770.43 118.04,766.12
             111.82,761.85 114.57,758.62 114.12,755.00
             113.42,749.46 109.66,748.75 112.00,739.00
             112.00,739.00 124.00,746.66 124.00,746.66 Z
           M 382.37,753.00
           C 380.87,757.97 383.38,759.32 381.21,762.91
             376.80,770.21 368.26,766.69 358.00,775.00
             366.90,775.00 373.95,775.67 382.00,770.79
             388.43,766.89 390.33,762.12 398.00,758.00
             398.00,761.75 396.81,776.10 400.31,777.65
             402.83,778.77 411.14,774.99 414.00,774.00
             412.19,795.55 387.06,809.81 367.00,807.00
             359.95,806.01 353.79,804.60 349.00,799.00
             349.00,799.00 369.00,799.00 369.00,799.00
             369.00,799.00 365.00,794.00 365.00,794.00
             365.00,794.00 370.00,788.00 370.00,788.00
             358.99,786.16 361.84,790.62 354.96,793.27
             351.46,794.61 344.67,793.39 341.00,792.54
             338.17,791.88 335.03,790.89 334.04,787.82
             333.26,785.37 335.28,780.25 331.80,779.87
             327.80,779.44 328.03,785.54 328.00,788.00
             318.49,786.06 311.27,776.27 304.00,775.49
             297.98,774.85 296.57,781.03 291.99,782.30
             288.40,783.29 284.05,779.72 280.00,779.23
             270.11,778.01 262.35,789.60 263.66,796.00
             264.88,801.97 270.50,805.08 276.00,806.00
             275.26,803.43 273.95,799.67 274.83,797.05
             276.73,791.36 284.14,791.81 287.26,796.14
             291.02,801.36 287.54,808.95 282.96,812.35
             277.16,816.66 270.08,816.87 264.01,813.01
             250.61,804.48 253.69,783.39 263.21,773.09
             270.11,765.62 285.02,759.46 295.00,757.61
             295.00,757.61 309.00,755.49 309.00,755.49
             309.00,755.49 325.00,750.00 325.00,750.00
             325.83,757.06 328.31,757.90 335.00,758.00
             356.43,758.29 366.01,751.03 383.00,739.00
             386.67,744.68 384.07,747.42 382.37,753.00 Z
           M 517.76,762.00
           C 519.06,753.55 512.07,753.02 506.00,751.57
             500.80,750.33 498.75,748.52 497.00,748.21
             494.29,747.75 492.39,749.41 490.00,750.37
             485.41,752.21 479.24,752.22 476.51,754.72
             473.01,757.94 473.69,765.55 477.23,766.66
             479.36,767.33 483.75,764.03 486.00,763.00
             486.13,765.17 486.07,767.60 487.74,769.26
             490.20,771.73 501.75,771.78 504.18,769.26
             505.75,767.63 505.80,765.11 506.00,763.00
             510.35,765.00 516.41,770.78 517.76,762.00 Z
           M 219.96,848.00
           C 217.33,844.29 214.27,841.17 211.00,838.04
             201.13,828.59 197.23,826.90 186.00,820.42
             182.54,818.42 177.11,815.59 176.77,811.05
             176.49,807.27 179.91,806.22 183.00,806.89
             183.00,806.89 200.00,815.35 200.00,815.35
             206.04,818.99 206.25,822.09 210.18,825.61
             212.93,828.07 215.83,828.87 218.78,832.10
             221.78,835.39 221.65,837.46 223.42,841.00
             228.31,850.74 228.99,846.58 229.00,859.00
             224.13,856.27 223.09,852.43 219.96,848.00 Z
           M 272.58,841.00
           C 274.35,837.46 274.22,835.39 277.22,832.10
             280.17,828.87 283.07,828.07 285.82,825.61
             289.75,822.09 289.96,818.99 296.00,815.35
             296.00,815.35 313.00,806.89 313.00,806.89
             316.09,806.22 319.51,807.27 319.23,811.05
             318.89,815.59 313.46,818.42 310.00,820.42
             298.77,826.90 294.87,828.59 285.00,838.04
             281.73,841.17 278.67,844.29 276.04,848.00
             272.91,852.43 271.87,856.27 267.00,859.00
             267.01,846.58 267.69,850.74 272.58,841.00 Z
           M 51.00,834.07
           C 38.66,830.67 40.90,821.61 50.00,815.58
             51.96,814.29 53.84,813.85 56.00,813.07
             64.10,810.15 67.84,811.02 73.66,818.02
             76.21,821.07 77.05,823.23 78.00,827.00
             72.08,827.98 71.70,827.93 67.00,824.00
             67.00,824.00 68.00,830.00 68.00,830.00
             68.00,830.00 62.00,826.00 62.00,826.00
             62.00,826.00 63.00,831.00 63.00,831.00
             63.00,831.00 57.00,829.00 57.00,829.00
             57.00,829.00 59.00,835.00 59.00,835.00
             56.02,834.93 53.93,834.88 51.00,834.07 Z
           M 430.00,813.74
           C 438.98,810.32 462.33,824.51 446.00,832.43
             444.02,833.39 442.13,833.66 440.00,834.00
             440.00,834.00 441.00,828.00 441.00,828.00
             428.31,825.10 434.17,823.86 420.00,825.00
             422.08,820.43 425.05,815.62 430.00,813.74 Z
           M 134.00,817.00
           C 154.87,817.10 180.82,827.96 196.00,842.09
             213.29,858.19 225.98,886.28 226.00,910.00
             219.72,907.54 218.09,904.67 213.00,900.67
             213.00,900.67 197.00,889.69 197.00,889.69
             185.39,882.32 166.74,877.03 153.00,876.09
             138.82,875.12 128.72,879.67 116.00,884.80
             109.50,887.42 99.92,891.30 93.00,887.83
             89.23,885.93 86.70,882.04 83.83,879.09
             80.95,876.12 78.15,874.42 75.63,870.99
             75.63,870.99 69.61,861.17 69.61,861.17
             66.16,857.17 57.19,852.05 61.57,843.01
             66.54,832.76 87.64,829.37 98.00,828.00
             98.00,828.00 96.00,817.00 96.00,817.00
             96.00,817.00 134.00,817.00 134.00,817.00 Z
           M 299.00,843.04
           C 313.79,828.75 340.26,817.25 361.00,817.00
             361.00,817.00 400.00,817.00 400.00,817.00
             400.00,817.00 398.00,828.00 398.00,828.00
             408.36,829.37 429.46,832.76 434.43,843.01
             438.81,852.05 429.84,857.17 426.39,861.17
             426.39,861.17 420.37,870.99 420.37,870.99
             417.85,874.42 415.05,876.12 412.17,879.09
             409.30,882.04 406.77,885.93 403.00,887.83
             396.08,891.30 386.50,887.42 380.00,884.80
             367.28,879.67 357.18,875.12 343.00,876.09
             329.26,877.03 310.61,882.32 299.00,889.69
             299.00,889.69 283.00,900.67 283.00,900.67
             277.91,904.67 276.28,907.54 270.00,910.00
             270.02,886.66 282.29,859.18 299.00,843.04 Z
           M 56.00,828.00
           C 56.00,828.00 57.00,829.00 57.00,829.00
             57.00,829.00 57.00,828.00 57.00,828.00
             57.00,828.00 56.00,828.00 56.00,828.00 Z
           M 34.11,870.82
           C 31.30,869.27 30.40,866.68 29.04,864.00
             24.85,855.75 24.50,855.89 27.28,847.00
             28.03,844.61 28.58,842.27 30.43,840.43
             35.57,835.28 47.48,837.14 54.00,838.00
             51.96,844.89 49.92,845.56 44.00,849.00
             44.00,849.00 50.00,849.00 50.00,849.00
             50.00,849.00 44.00,856.00 44.00,856.00
             44.00,856.00 50.00,855.00 50.00,855.00
             50.00,855.00 46.00,861.00 46.00,861.00
             46.00,861.00 52.00,860.00 52.00,860.00
             52.00,860.00 49.00,868.00 49.00,868.00
             49.00,868.00 57.00,865.00 57.00,865.00
             57.00,865.00 57.00,872.00 57.00,872.00
             57.00,872.00 61.00,870.00 61.00,870.00
             61.00,870.00 59.00,877.00 59.00,877.00
             60.34,876.32 61.18,875.58 62.83,875.57
             65.83,875.54 70.98,879.94 71.01,883.04
             71.06,886.96 62.48,899.20 58.98,900.98
             49.59,905.77 37.66,889.79 37.54,883.00
             37.44,877.92 42.70,873.33 46.00,870.00
             42.26,871.21 37.87,872.91 34.11,870.82 Z
           M 465.57,840.43
           C 467.42,842.27 467.97,844.61 468.72,847.00
             471.50,855.89 471.15,855.75 466.96,864.00
             465.60,866.68 464.70,869.27 461.89,870.82
             458.13,872.91 453.74,871.21 450.00,870.00
             453.30,873.33 458.56,877.92 458.46,883.00
             458.34,889.79 446.41,905.77 437.02,900.98
             433.52,899.20 424.94,886.96 424.99,883.04
             425.02,879.94 430.17,875.54 433.17,875.57
             434.82,875.58 435.66,876.32 437.00,877.00
             437.00,877.00 435.00,870.00 435.00,870.00
             435.00,870.00 439.00,871.00 439.00,871.00
             438.10,863.96 442.72,866.25 447.00,868.00
             447.00,868.00 444.00,860.00 444.00,860.00
             444.00,860.00 450.00,861.00 450.00,861.00
             450.00,861.00 446.00,855.00 446.00,855.00
             446.00,855.00 452.00,856.00 452.00,856.00
             452.00,856.00 446.00,849.00 446.00,849.00
             446.00,849.00 451.00,847.00 451.00,847.00
             445.07,845.73 443.68,843.68 442.00,838.00
             448.52,837.14 460.43,835.28 465.57,840.43 Z
           M 172.00,843.09
           C 172.00,843.09 157.00,842.02 157.00,842.02
             155.42,842.07 153.10,842.10 152.11,843.60
             150.94,845.37 152.17,848.37 153.09,850.00
             155.87,854.94 160.86,858.44 166.00,860.55
             169.43,861.95 175.02,863.19 177.17,866.34
             179.30,869.45 177.03,872.16 180.32,875.61
             182.58,877.98 190.65,880.99 194.00,882.42
             201.43,885.60 207.95,890.74 216.00,892.00
             212.83,869.54 196.47,844.92 172.00,843.09 Z
           M 302.00,882.42
           C 305.35,880.99 313.42,877.98 315.68,875.61
             318.97,872.16 316.70,869.45 318.83,866.34
             320.98,863.19 326.57,861.95 330.00,860.55
             335.14,858.44 340.13,854.94 342.91,850.00
             343.83,848.37 345.06,845.37 343.89,843.60
             342.90,842.10 340.58,842.07 339.00,842.02
             339.00,842.02 324.00,843.09 324.00,843.09
             299.53,844.92 283.17,869.54 280.00,892.00
             288.05,890.74 294.57,885.60 302.00,882.42 Z
           M 252.77,856.31
           C 257.45,859.24 255.54,864.50 250.98,866.26
             244.44,868.77 234.95,861.43 245.02,855.74
             247.81,855.09 250.15,854.67 252.77,856.31 Z
           M 240.92,890.00
           C 242.10,892.49 244.87,896.80 248.00,896.80
             251.13,896.80 253.90,892.49 255.08,890.00
             258.58,882.63 255.54,875.39 265.00,872.00
             265.00,872.00 264.00,885.00 264.00,885.00
             263.89,894.69 265.10,901.00 260.20,910.00
             257.98,914.08 253.12,920.32 248.00,920.32
             242.88,920.32 238.02,914.08 235.80,910.00
             231.18,901.52 232.04,896.14 232.00,887.00
             232.00,887.00 231.00,872.00 231.00,872.00
             240.46,875.39 237.42,882.63 240.92,890.00 Z
           M 156.00,882.01
           C 161.11,881.90 171.21,883.03 176.00,884.60
             180.00,885.90 186.22,889.45 190.00,891.58
             203.71,899.30 207.57,899.95 218.56,913.00
             221.88,916.94 232.24,930.54 233.15,935.00
             233.84,937.21 233.47,937.94 233.15,940.00
             233.15,940.00 218.00,931.36 218.00,931.36
             218.00,931.36 198.00,928.09 198.00,928.09
             198.00,928.09 189.00,927.54 189.00,927.54
             189.00,927.54 167.00,920.00 167.00,920.00
             167.00,920.00 172.00,914.00 172.00,914.00
             172.00,914.00 158.00,913.00 158.00,913.00
             148.64,912.96 139.94,913.78 131.00,910.24
             127.20,908.73 116.18,902.79 120.62,897.51
             122.77,894.95 130.69,894.27 134.00,894.00
             134.00,894.00 131.00,885.00 131.00,885.00
             131.00,885.00 156.00,882.01 156.00,882.01 Z
           M 275.81,915.00
           C 285.91,902.40 290.46,900.02 304.00,892.69
             317.46,885.41 324.07,881.65 340.00,882.01
             340.00,882.01 365.00,885.00 365.00,885.00
             365.00,885.00 362.00,894.00 362.00,894.00
             365.31,894.27 373.23,894.95 375.38,897.51
             379.82,902.79 368.80,908.73 365.00,910.24
             356.14,913.75 347.30,912.99 338.00,913.00
             338.00,913.00 325.00,914.00 325.00,914.00
             325.00,914.00 329.00,920.00 329.00,920.00
             329.00,920.00 307.00,927.54 307.00,927.54
             307.00,927.54 298.00,928.09 298.00,928.09
             298.00,928.09 279.00,931.04 279.00,931.04
             279.00,931.04 262.00,940.00 262.00,940.00
             262.53,930.45 269.99,922.26 275.81,915.00 Z
           M 93.85,904.04
           C 94.70,909.32 91.87,922.00 87.61,925.40
             81.93,929.94 71.23,920.98 67.02,917.46
             65.06,915.82 62.77,914.26 61.74,911.83
             58.76,904.82 65.54,899.29 70.00,895.02
             73.42,891.75 74.31,890.76 79.00,890.00
             79.00,890.00 78.00,895.00 78.00,895.00
             78.00,895.00 82.00,893.00 82.00,893.00
             82.00,893.00 81.00,899.00 81.00,899.00
             81.00,899.00 87.00,896.00 87.00,896.00
             87.00,896.00 87.00,903.00 87.00,903.00
             89.56,898.60 93.05,899.04 93.85,904.04 Z
           M 434.57,910.91
           C 433.58,914.36 429.67,916.89 427.00,919.13
             423.31,922.21 414.20,928.82 409.21,925.97
             404.38,923.22 401.94,911.25 402.03,906.00
             402.16,899.31 405.49,898.15 410.00,903.00
             410.00,903.00 409.00,896.00 409.00,896.00
             409.00,896.00 415.00,899.00 415.00,899.00
             415.00,899.00 414.00,893.00 414.00,893.00
             414.00,893.00 418.00,895.00 418.00,895.00
             418.00,895.00 417.00,890.00 417.00,890.00
             424.13,891.15 436.88,902.86 434.57,910.91 Z
           M 80.00,899.00
           C 80.00,899.00 81.00,900.00 81.00,900.00
             81.00,900.00 81.00,899.00 81.00,899.00
             81.00,899.00 80.00,899.00 80.00,899.00 Z
           M 415.00,899.00
           C 415.00,899.00 416.00,900.00 416.00,900.00
             416.00,900.00 416.00,899.00 416.00,899.00
             416.00,899.00 415.00,899.00 415.00,899.00 Z
           M 187.00,908.00
           C 187.00,908.00 186.00,911.00 186.00,911.00
             186.00,911.00 197.00,914.00 197.00,914.00
             197.00,914.00 196.00,917.00 196.00,917.00
             196.00,917.00 207.00,918.00 207.00,918.00
             204.70,914.17 201.62,913.06 198.00,910.65
             184.82,901.85 189.57,904.86 175.00,900.00
             176.40,905.12 182.32,906.90 187.00,908.00 Z
           M 297.00,911.57
           C 293.76,913.90 291.77,915.01 289.00,918.00
             289.00,918.00 300.00,917.00 300.00,917.00
             301.35,911.94 303.70,913.12 307.55,910.77
             307.55,910.77 312.13,907.33 312.13,907.33
             316.43,904.62 319.24,904.74 322.00,900.00
             306.04,905.22 311.72,901.03 297.00,911.57 Z
           M 122.00,914.11
           C 132.38,913.12 130.52,918.95 129.00,926.00
             128.39,928.84 127.56,933.38 125.35,935.40
             123.58,937.02 121.25,937.01 119.00,936.83
             111.90,936.24 101.58,931.79 98.74,924.83
             95.72,917.44 104.84,905.98 111.00,903.00
             111.00,903.00 111.00,912.00 111.00,912.00
             111.00,912.00 115.00,909.00 115.00,909.00
             115.00,909.00 115.00,917.00 115.00,917.00
             117.66,915.24 118.70,914.42 122.00,914.11 Z
           M 397.26,924.83
           C 394.42,931.79 384.10,936.24 377.00,936.83
             374.73,937.01 372.44,937.02 370.65,935.40
             369.83,934.67 357.89,912.58 374.00,914.11
             377.30,914.42 378.34,915.24 381.00,917.00
             381.00,917.00 381.00,909.00 381.00,909.00
             381.00,909.00 385.00,912.00 385.00,912.00
             385.00,912.00 385.00,903.00 385.00,903.00
             391.16,905.98 400.28,917.44 397.26,924.83 Z
           M 154.59,946.17
           C 152.17,948.73 149.33,952.93 145.96,954.07
             139.56,956.22 135.98,948.70 140.23,942.10
             145.02,934.65 157.28,934.12 165.00,936.00
             165.00,936.00 165.00,938.00 165.00,938.00
             161.01,940.69 157.95,942.62 154.59,946.17 Z
           M 355.77,942.10
           C 360.02,948.70 356.44,956.22 350.04,954.07
             346.67,952.93 343.83,948.73 341.41,946.17
             338.05,942.62 334.99,940.69 331.00,938.00
             331.00,938.00 331.00,936.00 331.00,936.00
             338.72,934.12 350.98,934.65 355.77,942.10 Z
           M 226.00,948.42
           C 226.00,948.42 247.00,952.10 247.00,952.10
             251.83,952.32 260.60,949.91 266.00,949.13
             281.37,946.92 288.29,945.98 304.00,946.00
             316.50,946.02 331.00,949.83 339.07,960.09
             346.61,969.66 346.60,976.34 339.82,986.00
             337.33,989.54 335.28,991.88 331.00,993.20
             323.87,995.40 321.60,990.93 318.00,991.57
             315.31,992.06 306.90,1001.05 300.30,996.82
             296.12,994.15 297.79,988.04 297.96,984.00
             298.29,976.12 297.98,970.68 290.98,965.65
             285.70,961.84 269.52,959.05 263.00,959.37
             263.00,959.37 246.00,960.91 246.00,960.91
             234.28,960.24 227.05,958.38 215.00,961.48
             204.84,964.09 198.15,968.86 197.93,980.00
             197.93,980.00 197.93,988.00 197.93,988.00
             197.93,988.00 197.93,992.96 197.93,992.96
             195.50,1004.74 179.63,991.99 178.00,991.71
             174.54,991.14 171.46,995.34 165.00,993.35
             160.89,992.08 158.56,989.39 155.98,986.00
             149.88,977.02 149.13,971.33 155.98,962.00
             158.51,958.19 162.01,954.92 166.00,952.47
             171.37,949.16 177.85,947.59 184.00,946.44
             196.15,944.88 213.80,946.53 226.00,948.42 Z
           M 252.66,987.00
           C 254.19,994.17 253.48,999.63 256.45,1007.00
             256.45,1007.00 260.76,1016.00 260.76,1016.00
             260.76,1016.00 268.05,1030.00 268.05,1030.00
             272.18,1041.05 270.40,1058.78 257.00,1062.29
             253.72,1063.15 249.42,1063.04 246.00,1063.00
             242.97,1062.96 239.88,1062.80 237.00,1061.74
             231.43,1059.68 229.10,1055.35 227.36,1050.00
             221.51,1032.07 234.88,1020.37 240.30,1005.00
             240.30,1005.00 244.17,984.23 244.17,984.23
             245.24,982.50 245.60,982.73 247.09,981.88
             250.87,981.92 251.86,983.24 252.66,987.00 Z
           M 216.00,1010.76
           C 207.66,1012.02 206.75,1004.93 210.11,999.00
             214.51,991.21 222.10,984.67 231.00,983.00
             230.97,992.25 227.11,1009.08 216.00,1010.76 Z
           M 285.89,999.00
           C 288.29,1003.25 289.37,1009.73 282.96,1010.76
             269.97,1012.84 265.03,992.44 265.00,983.00
             273.90,984.67 281.49,991.21 285.89,999.00 Z
           M 238.70,1041.00
           C 239.88,1046.41 244.08,1050.81 250.00,1049.39
             262.25,1046.46 258.88,1023.00 247.04,1022.64
             240.35,1025.32 237.20,1034.15 238.70,1041.00 Z
           M 218.15,1088.04
           C 215.08,1083.57 210.29,1081.15 209.71,1075.00
             209.15,1068.90 216.28,1062.22 224.00,1065.15
             233.78,1068.86 236.34,1081.40 231.07,1089.91
             229.14,1093.01 224.12,1096.05 221.00,1098.00
             220.80,1093.95 220.54,1091.52 218.15,1088.04 Z
           M 264.93,1089.91
           C 259.65,1081.38 262.27,1068.84 272.00,1065.01
             279.17,1062.19 286.88,1068.62 286.29,1075.00
             285.71,1081.15 280.92,1083.57 277.85,1088.04
             275.46,1091.52 275.20,1093.95 275.00,1098.00
             271.88,1096.05 266.86,1093.01 264.93,1089.91 Z
           M 226.00,1090.00
           C 226.00,1090.00 224.00,1077.00 224.00,1077.00
             222.91,1080.83 223.84,1086.67 226.00,1090.00 Z
           M 272.00,1091.00
           C 272.00,1091.00 274.00,1077.00 274.00,1077.00
             270.06,1081.15 268.77,1086.00 272.00,1091.00 Z
           M 249.00,1093.00
           C 252.99,1099.13 260.00,1111.50 258.64,1119.00
             256.84,1128.96 243.69,1128.46 239.51,1123.72
             232.88,1116.21 242.60,1099.76 247.00,1093.00
             247.00,1093.00 249.00,1093.00 249.00,1093.00 Z" />
</svg>
