<?xml version="1.0" encoding="UTF-8" standalone="no"?>
<!DOCTYPE svg PUBLIC "-//W3C//DTD SVG 20010904//EN"
              "http://www.w3.org/TR/2001/REC-SVG-20010904/DTD/svg10.dtd">

<svg xmlns="http://www.w3.org/2000/svg"
     width="1.65334in" height="2.03in"
     viewBox="0 0 496 609">
  <path id="Επιλογή"
        fill="none" stroke="black" stroke-width="1"
        d="M 0.52,11.28
           C 1.15,9.52 2.92,7.46 4.13,6.00
             7.80,1.57 11.09,-1.31 17.00,1.00
             5.82,6.10 6.49,10.84 0.00,19.00
             0.00,16.90 -0.16,13.17 0.52,11.28 Z
           M 84.00,0.00
           C 84.00,15.72 86.63,23.94 89.46,39.00
             90.38,43.92 92.82,53.28 92.82,58.00
             92.82,60.13 91.64,67.79 91.10,70.00
             89.79,75.36 87.58,79.50 84.43,84.00
             80.17,90.09 74.77,95.59 68.00,98.86
             54.80,105.24 35.49,101.80 24.09,93.06
             21.79,91.30 18.09,87.26 16.19,85.00
             9.25,76.69 3.74,64.93 4.01,54.00
             4.28,43.20 10.67,39.45 20.00,45.00
             20.00,45.00 20.00,34.00 20.00,34.00
             20.00,34.00 29.00,43.00 29.00,43.00
             29.00,43.00 30.00,30.00 30.00,30.00
             37.03,32.45 34.08,39.54 34.31,45.00
             34.45,48.32 35.95,49.71 36.34,51.91
             36.70,53.89 34.77,59.74 33.22,61.01
             32.02,61.98 30.44,61.89 29.00,62.00
             30.75,67.28 33.90,67.54 39.00,68.00
             39.00,68.00 36.00,72.00 36.00,72.00
             41.56,78.58 44.55,76.07 49.91,76.58
             53.79,76.95 55.02,80.12 59.90,75.77
             66.69,69.71 63.57,63.59 72.00,65.00
             73.01,57.37 71.05,55.97 71.46,53.21
             71.89,50.37 74.42,49.79 74.94,46.90
             75.56,43.43 72.61,39.19 71.59,36.00
             70.50,32.56 71.57,31.27 70.74,29.00
             69.07,24.45 62.13,20.22 58.00,18.00
             58.00,18.00 58.00,15.00 58.00,15.00
             58.00,15.00 61.00,14.00 61.00,14.00
             54.23,6.74 49.05,8.00 40.00,8.00
             40.00,8.00 40.00,0.00 40.00,0.00
             40.00,0.00 84.00,0.00 84.00,0.00 Z
           M 104.59,0.57
           C 104.59,0.57 109.23,4.38 109.23,4.38
             109.23,4.38 115.37,0.57 115.37,0.57
             115.37,0.57 127.00,0.00 127.00,0.00
             122.15,7.77 111.65,9.47 120.39,19.96
             121.91,21.78 123.13,22.63 125.00,24.00
             123.88,21.91 120.89,17.06 120.64,15.00
             119.74,7.46 136.23,2.13 141.98,5.17
             147.88,8.32 147.87,13.86 141.98,17.00
             136.89,10.73 135.75,12.28 129.00,9.00
             128.60,15.47 133.72,23.74 141.00,23.56
             146.25,23.44 153.39,15.30 152.47,10.00
             151.83,6.36 147.39,2.92 145.00,0.00
             145.00,0.00 164.00,0.00 164.00,0.00
             165.79,0.01 168.81,-0.17 170.26,0.99
             172.49,2.78 173.72,20.67 181.44,12.73
             182.16,12.00 182.84,10.89 183.31,9.98
             183.98,8.71 184.39,7.41 184.83,6.00
             185.03,4.09 184.98,1.95 184.83,0.00
             184.83,0.00 311.17,0.00 311.17,0.00
             311.02,1.95 310.97,4.09 311.17,6.00
             311.61,7.41 312.02,8.71 312.69,9.98
             313.16,10.89 313.84,12.00 314.56,12.73
             322.06,20.45 323.87,3.19 325.17,1.57
             326.56,-0.14 329.02,0.04 331.00,0.00
             331.00,0.00 351.00,0.00 351.00,0.00
             348.61,2.92 344.17,6.36 343.53,10.00
             342.61,15.30 349.75,23.44 355.00,23.56
             362.28,23.74 367.40,15.47 367.00,9.00
             360.25,12.28 359.11,10.73 354.02,17.00
             348.13,13.86 348.12,8.32 354.02,5.17
             359.77,2.13 376.26,7.46 375.36,15.00
             375.11,17.06 372.12,21.91 371.00,24.00
             372.87,22.63 374.09,21.78 375.61,19.96
             384.35,9.47 373.85,7.77 369.00,0.00
             369.00,0.00 380.63,0.57 380.63,0.57
             380.63,0.57 386.77,4.38 386.77,4.38
             386.77,4.38 391.41,0.57 391.41,0.57
             391.41,0.57 401.00,0.00 401.00,0.00
             398.43,8.07 390.53,16.23 385.33,23.00
             375.52,35.79 365.59,51.20 365.57,68.00
             365.56,78.63 369.14,85.80 373.75,95.00
             386.35,120.13 410.36,138.33 439.00,138.00
             444.16,137.94 453.27,136.73 458.00,134.81
             470.92,129.56 478.35,121.26 486.23,110.00
             489.68,105.07 491.53,100.18 496.00,96.00
             496.00,96.00 496.00,105.00 496.00,105.00
             495.89,112.71 492.54,117.21 487.71,123.00
             474.38,139.02 460.13,141.86 450.79,155.00
             445.69,162.17 445.87,167.58 452.05,173.98
             455.24,177.28 456.53,178.28 461.00,179.00
             461.09,176.52 460.98,174.32 462.60,172.23
             466.55,167.10 483.75,166.89 485.77,178.00
             486.43,181.59 486.02,188.51 484.91,192.00
             483.49,196.46 480.43,201.21 481.43,206.00
             483.93,218.06 495.78,220.44 496.00,232.00
             496.05,235.13 496.43,242.16 494.98,244.72
             492.56,248.98 484.80,252.98 484.10,262.70
             483.75,267.46 494.16,270.14 489.96,276.68
             487.50,280.52 484.59,277.47 483.00,275.00
             483.00,275.00 481.00,275.00 481.00,275.00
             477.58,284.12 480.00,287.64 477.98,290.69
             475.93,293.77 471.12,292.49 470.62,295.31
             470.21,297.61 474.18,301.83 478.00,300.60
             483.15,298.94 484.38,291.92 488.11,290.66
             490.66,289.79 492.73,291.27 492.13,294.06
             491.40,297.47 487.30,300.08 488.40,306.00
             489.60,312.42 494.71,315.36 495.71,319.17
             497.16,324.68 493.77,329.03 493.71,332.00
             493.62,335.67 495.96,334.95 496.00,345.00
             484.06,347.70 473.75,349.92 465.82,360.00
             463.40,363.08 461.38,366.11 460.53,370.00
             458.84,377.73 466.58,392.21 468.96,400.00
             470.66,405.55 473.82,426.70 473.24,432.00
             473.24,432.00 473.24,441.00 473.24,441.00
             472.98,452.72 472.88,450.88 470.76,462.00
             470.42,463.78 470.00,466.83 472.32,467.55
             474.95,468.36 477.79,464.86 479.03,462.98
             484.11,455.30 480.47,450.78 482.00,443.00
             482.00,443.00 485.00,443.00 485.00,443.00
             485.00,443.00 488.00,458.00 488.00,458.00
             489.97,449.98 488.21,442.51 496.00,438.00
             496.00,438.00 496.00,470.00 496.00,470.00
             475.26,472.21 476.59,500.86 496.00,502.00
             496.00,505.50 496.40,519.46 495.40,521.79
             494.18,524.65 490.90,525.74 487.34,530.02
             484.83,533.03 481.46,540.22 479.87,544.00
             475.52,554.36 474.00,568.81 474.00,580.00
             468.11,579.00 465.68,571.32 461.83,567.00
             459.03,563.86 453.36,558.18 450.00,555.79
             439.56,548.34 424.86,544.49 415.13,555.04
             412.23,558.19 411.68,559.92 411.00,564.00
             413.96,564.01 417.28,563.79 419.99,565.17
             424.87,567.68 427.28,573.35 429.60,578.00
             433.46,585.71 437.15,593.62 443.09,600.00
             446.34,603.48 450.89,608.03 456.15,606.98
             457.12,606.78 458.53,606.36 459.09,605.45
             460.76,602.74 455.48,600.24 452.33,596.83
             449.12,593.35 444.30,583.58 442.45,579.00
             441.72,577.19 440.15,573.20 440.78,571.32
             442.68,565.66 452.15,574.24 453.98,576.04
             457.48,579.46 462.05,585.72 464.48,590.00
             466.08,592.82 467.12,596.42 469.39,598.70
             473.97,603.30 479.70,601.14 486.00,609.00
             486.00,609.00 411.00,609.00 411.00,609.00
             409.96,603.54 407.99,599.75 403.00,597.00
             402.96,610.29 400.75,609.00 389.00,609.00
             388.36,595.33 383.16,594.94 380.00,585.00
             388.00,586.31 390.90,595.04 393.00,602.00
             393.00,602.00 395.00,602.00 395.00,602.00
             398.57,592.23 394.00,591.66 393.00,582.00
             397.31,582.73 397.33,583.66 400.00,587.00
             399.92,577.62 397.70,570.41 393.78,562.00
             393.78,562.00 390.18,554.00 390.18,554.00
             382.69,541.52 369.70,531.69 356.00,527.00
             350.50,525.12 344.92,522.75 339.00,523.09
             333.44,523.41 320.61,527.29 322.71,534.95
             323.62,538.29 327.62,539.21 327.68,541.96
             327.71,543.55 325.86,545.44 325.22,547.09
             324.05,550.10 325.00,554.21 326.45,557.00
             329.63,563.11 334.49,563.07 335.76,566.22
             336.78,568.75 334.56,570.99 334.66,574.00
             334.78,577.72 339.08,584.20 342.09,586.27
             344.92,588.20 350.49,588.80 354.00,589.73
             364.87,592.61 376.20,597.54 380.00,609.00
             377.20,609.00 369.52,609.30 367.28,608.44
             362.13,606.46 359.92,600.51 351.00,601.00
             351.00,601.00 355.00,609.00 355.00,609.00
             355.00,609.00 326.00,609.00 326.00,609.00
             326.00,609.00 330.00,599.00 330.00,599.00
             319.35,596.94 317.26,604.84 311.72,607.98
             309.52,609.22 306.47,609.00 304.00,609.00
             304.00,609.00 192.00,609.00 192.00,609.00
             189.53,609.00 186.48,609.22 184.28,607.98
             178.74,604.84 176.65,596.94 166.00,599.00
             166.00,599.00 170.00,609.00 170.00,609.00
             170.00,609.00 141.00,609.00 141.00,609.00
             141.00,609.00 145.00,601.00 145.00,601.00
             136.08,600.51 133.87,606.46 128.72,608.44
             126.48,609.30 118.80,609.00 116.00,609.00
             119.80,597.54 131.13,592.61 142.00,589.73
             145.51,588.80 151.08,588.20 153.91,586.27
             156.92,584.20 161.22,577.72 161.34,574.00
             161.44,570.99 159.22,568.75 160.24,566.22
             161.51,563.07 166.37,563.11 169.55,557.00
             171.00,554.21 171.95,550.10 170.78,547.09
             170.14,545.44 168.29,543.55 168.32,541.96
             168.38,539.21 172.38,538.29 173.29,534.95
             175.39,527.29 162.56,523.41 157.00,523.09
             151.22,522.76 146.37,524.86 141.00,526.67
             126.72,531.48 113.65,540.95 105.82,554.00
             105.82,554.00 102.22,562.00 102.22,562.00
             98.92,569.09 94.85,579.20 97.00,587.00
             98.82,583.31 98.87,582.71 103.00,582.00
             102.00,591.66 97.43,592.23 101.00,602.00
             101.00,602.00 103.00,602.00 103.00,602.00
             105.10,595.04 108.00,586.31 116.00,585.00
             112.84,594.94 107.64,595.33 107.00,609.00
             95.25,609.00 93.04,610.29 93.00,597.00
             88.01,599.75 86.04,603.54 85.00,609.00
             85.00,609.00 10.00,609.00 10.00,609.00
             16.30,601.14 22.03,603.30 26.61,598.70
             28.88,596.42 29.92,592.82 31.52,590.00
             33.95,585.72 38.52,579.46 42.02,576.04
             43.85,574.24 53.32,565.66 55.22,571.32
             55.85,573.20 54.28,577.19 53.55,579.00
             51.70,583.58 46.88,593.35 43.67,596.83
             40.47,600.30 35.27,602.71 36.90,605.45
             37.43,606.35 38.78,606.80 39.74,606.99
             44.99,608.05 49.67,603.47 52.91,600.00
             58.85,593.62 62.54,585.71 66.40,578.00
             68.72,573.35 71.13,567.68 76.01,565.17
             78.72,563.79 82.04,564.01 85.00,564.00
             84.32,559.92 83.77,558.19 80.87,555.04
             71.14,544.49 56.44,548.34 46.00,555.79
             42.64,558.18 36.97,563.86 34.17,567.00
             30.32,571.32 27.89,579.00 22.00,580.00
             22.00,568.81 20.48,554.36 16.13,544.00
             14.54,540.22 11.17,533.03 8.66,530.02
             5.10,525.74 1.82,524.65 0.60,521.79
             -0.40,519.46 0.00,505.50 0.00,502.00
             19.41,500.86 20.74,472.21 0.00,470.00
             0.00,470.00 0.00,438.00 0.00,438.00
             8.67,442.42 4.51,449.54 9.00,458.00
             9.00,458.00 11.00,443.00 11.00,443.00
             11.00,443.00 14.00,443.00 14.00,443.00
             15.53,450.78 11.89,455.30 16.97,462.98
             18.21,464.86 21.05,468.36 23.68,467.55
             26.00,466.83 25.58,463.78 25.24,462.00
             23.12,450.88 23.02,452.72 22.76,441.00
             22.76,441.00 22.76,432.00 22.76,432.00
             22.18,426.70 25.34,405.55 27.04,400.00
             29.42,392.21 37.16,377.73 35.47,370.00
             34.62,366.11 32.60,363.08 30.18,360.00
             22.25,349.92 11.94,347.70 0.00,345.00
             0.04,334.95 2.38,335.67 2.29,332.00
             2.23,329.03 -1.16,324.68 0.29,319.17
             1.29,315.36 6.40,312.42 7.60,306.00
             8.70,300.08 4.60,297.47 3.87,294.06
             3.27,291.27 5.34,289.79 7.89,290.66
             11.82,291.99 14.55,302.71 20.99,300.60
             22.82,300.01 25.76,297.47 25.38,295.31
             24.88,292.49 20.07,293.77 18.02,290.69
             16.00,287.64 18.42,284.12 15.00,275.00
             15.00,275.00 13.00,275.00 13.00,275.00
             11.43,277.45 8.64,280.51 6.19,276.68
             1.79,269.82 12.31,267.70 11.91,262.82
             11.09,252.74 3.43,248.96 1.02,244.72
             -0.43,242.16 -0.05,235.13 0.00,232.00
             0.22,220.44 12.07,218.06 14.57,206.00
             15.57,201.21 12.51,196.46 11.09,192.00
             9.98,188.51 9.57,181.59 10.23,178.00
             12.25,166.89 29.45,167.10 33.40,172.23
             35.02,174.32 34.91,176.52 35.00,179.00
             39.47,178.28 40.76,177.28 43.81,173.98
             51.08,166.60 49.86,160.49 43.81,153.00
             33.09,140.19 20.06,138.39 6.68,121.00
             1.27,113.98 -2.50,104.81 1.00,96.00
             11.61,112.24 18.88,127.04 38.00,134.81
             44.32,137.37 54.16,138.08 61.00,138.00
             88.65,137.67 111.48,116.54 123.25,93.00
             126.11,87.27 128.56,82.42 129.68,76.00
             133.20,55.88 122.37,38.24 110.67,23.00
             105.47,16.23 97.57,8.07 95.00,0.00
             95.00,0.00 104.59,0.57 104.59,0.57 Z
           M 456.00,0.00
           C 456.00,0.00 456.00,8.00 456.00,8.00
             446.95,8.00 441.77,6.74 435.00,14.00
             435.00,14.00 438.00,15.00 438.00,15.00
             438.00,15.00 438.00,18.00 438.00,18.00
             433.87,20.22 426.93,24.45 425.26,29.00
             424.43,31.27 425.50,32.56 424.41,36.00
             423.39,39.19 420.44,43.43 421.06,46.90
             421.58,49.79 424.11,50.37 424.54,53.21
             424.95,55.97 422.99,57.37 424.00,65.00
             432.43,63.59 429.31,69.71 436.10,75.77
             440.98,80.12 442.21,76.95 446.09,76.58
             451.45,76.07 454.44,78.58 460.00,72.00
             460.00,72.00 457.00,68.00 457.00,68.00
             462.10,67.54 465.25,67.28 467.00,62.00
             465.56,61.89 463.98,61.98 462.78,61.01
             461.23,59.74 459.30,53.89 459.66,51.91
             460.05,49.71 461.55,48.32 461.69,45.00
             461.92,39.54 458.97,32.45 466.00,30.00
             466.00,30.00 467.00,43.00 467.00,43.00
             467.00,43.00 476.00,34.00 476.00,34.00
             476.00,34.00 476.00,45.00 476.00,45.00
             487.76,38.00 492.26,45.77 491.99,57.00
             491.77,65.89 485.44,78.26 479.81,85.00
             477.91,87.26 474.21,91.30 471.91,93.06
             460.51,101.80 441.20,105.24 428.00,98.86
             421.23,95.59 415.83,90.09 411.57,84.00
             408.42,79.50 406.21,75.36 404.90,70.00
             404.36,67.79 403.18,60.13 403.18,58.00
             403.18,53.28 405.62,43.92 406.54,39.00
             409.37,23.94 412.00,15.72 412.00,0.00
             412.00,0.00 456.00,0.00 456.00,0.00 Z
           M 485.96,0.85
           C 492.32,3.55 497.74,12.09 495.00,19.00
             490.04,7.56 487.98,7.26 479.00,0.00
             481.34,0.03 483.76,-0.08 485.96,0.85 Z
           M 223.28,6.41
           C 221.26,10.24 226.08,12.81 229.00,13.70
             234.32,15.30 247.36,16.37 253.00,15.83
             257.00,15.45 266.69,14.40 269.89,12.55
             272.04,11.31 274.08,9.00 272.72,6.41
             271.58,4.25 268.22,3.46 266.00,3.18
             266.00,3.18 246.00,2.30 246.00,2.30
             240.87,3.00 225.64,1.94 223.28,6.41 Z
           M 128.00,8.00
           C 128.00,8.00 129.00,9.00 129.00,9.00
             129.00,9.00 129.00,8.00 129.00,8.00
             129.00,8.00 128.00,8.00 128.00,8.00 Z
           M 255.00,8.00
           C 255.00,8.00 255.00,10.00 255.00,10.00
             255.00,10.00 241.00,10.00 241.00,10.00
             241.00,10.00 241.00,8.00 241.00,8.00
             241.00,8.00 255.00,8.00 255.00,8.00 Z
           M 367.00,8.00
           C 367.00,8.00 368.00,9.00 368.00,9.00
             368.00,9.00 368.00,8.00 368.00,8.00
             368.00,8.00 367.00,8.00 367.00,8.00 Z
           M 149.00,39.77
           C 156.32,40.67 163.43,35.32 164.49,28.00
             164.92,25.05 162.98,12.93 158.17,15.17
             152.50,17.80 157.41,27.62 152.69,32.89
             146.21,39.84 140.50,32.12 134.00,32.89
             137.65,35.08 145.01,39.28 149.00,39.77 Z
           M 344.15,33.57
           C 339.18,29.31 341.95,23.85 340.57,19.02
             339.98,16.96 338.07,13.86 335.36,15.17
             333.25,16.31 327.81,28.56 335.36,35.61
             343.27,43.26 355.08,38.91 362.00,32.00
             356.18,33.65 349.73,38.36 344.15,33.57 Z
           M 270.00,44.42
           C 280.58,45.96 278.55,62.95 281.34,69.87
             283.27,74.64 287.03,71.80 289.20,68.96
             289.20,68.96 293.11,63.58 293.11,63.58
             297.63,58.17 295.42,59.80 297.69,55.10
             299.75,50.86 302.82,51.14 303.77,45.98
             305.59,36.18 297.67,23.09 288.00,20.56
             278.84,18.16 267.74,21.70 261.00,28.05
             255.27,33.46 255.27,34.47 251.96,40.99
             251.19,42.51 250.03,44.96 248.00,44.96
             244.51,44.96 243.73,38.26 239.61,33.00
             233.54,25.24 225.96,20.47 216.00,20.04
             212.71,19.90 209.07,19.94 206.00,21.23
             197.45,24.80 190.51,36.72 192.23,45.98
             193.18,51.14 196.25,50.86 198.31,55.10
             198.31,55.10 200.16,59.96 200.16,59.96
             201.05,61.60 208.68,71.24 210.06,71.93
             213.89,73.83 214.83,69.79 215.38,67.00
             216.78,59.91 216.24,50.35 223.10,45.74
             227.29,42.93 231.56,45.28 234.82,48.33
             239.77,52.97 243.32,63.53 247.00,70.00
             247.00,70.00 249.00,70.00 249.00,70.00
             253.07,62.86 259.49,42.89 270.00,44.42 Z
           M 128.00,27.00
           C 128.00,27.00 129.00,28.00 129.00,28.00
             129.00,28.00 129.00,27.00 129.00,27.00
             129.00,27.00 128.00,27.00 128.00,27.00 Z
           M 367.00,27.00
           C 367.00,27.00 368.00,28.00 368.00,28.00
             368.00,28.00 368.00,27.00 368.00,27.00
             368.00,27.00 367.00,27.00 367.00,27.00 Z
           M 129.00,28.00
           C 129.00,28.00 130.00,29.00 130.00,29.00
             130.00,29.00 130.00,28.00 130.00,28.00
             130.00,28.00 129.00,28.00 129.00,28.00 Z
           M 366.00,28.00
           C 366.00,28.00 367.00,29.00 367.00,29.00
             367.00,29.00 367.00,28.00 367.00,28.00
             367.00,28.00 366.00,28.00 366.00,28.00 Z
           M 130.00,29.00
           C 130.00,29.00 131.00,30.00 131.00,30.00
             131.00,30.00 131.00,29.00 131.00,29.00
             131.00,29.00 130.00,29.00 130.00,29.00 Z
           M 365.00,29.00
           C 365.00,29.00 366.00,30.00 366.00,30.00
             366.00,30.00 366.00,29.00 366.00,29.00
             366.00,29.00 365.00,29.00 365.00,29.00 Z
           M 133.00,31.00
           C 133.00,31.00 134.00,32.00 134.00,32.00
             134.00,32.00 134.00,31.00 134.00,31.00
             134.00,31.00 133.00,31.00 133.00,31.00 Z
           M 362.00,31.00
           C 362.00,31.00 363.00,32.00 363.00,32.00
             363.00,32.00 363.00,31.00 363.00,31.00
             363.00,31.00 362.00,31.00 362.00,31.00 Z
           M 203.90,40.35
           C 200.83,41.48 197.56,38.15 203.05,34.88
             208.37,34.93 206.51,39.39 203.90,40.35 Z
           M 295.60,39.44
           C 294.23,42.01 287.71,39.95 290.64,35.13
             294.47,34.32 296.79,37.22 295.60,39.44 Z
           M 214.79,45.96
           C 212.18,54.06 204.85,47.01 211.23,43.02
             212.53,42.21 213.59,42.23 214.79,42.00
             214.92,43.32 214.95,44.67 214.79,45.96 Z
           M 284.77,43.02
           C 291.15,47.01 283.82,54.06 281.21,45.96
             281.05,44.67 281.08,43.32 281.21,42.00
             282.41,42.23 283.47,42.21 284.77,43.02 Z
           M 110.00,55.00
           C 110.00,55.00 111.00,75.00 111.00,75.00
             118.90,77.80 109.82,87.96 106.84,92.00
             105.42,93.94 102.07,97.77 101.47,99.83
             100.67,102.58 102.93,103.91 99.68,107.56
             93.74,114.25 82.30,117.43 75.00,123.00
             75.00,123.00 77.00,128.00 77.00,128.00
             64.46,128.11 67.15,130.60 53.00,126.00
             52.28,127.12 51.90,128.20 50.59,128.88
             45.70,131.41 35.44,121.25 31.00,119.47
             27.98,118.26 25.95,119.34 23.53,117.39
             20.66,115.08 16.79,104.84 14.04,101.21
             11.74,98.17 8.82,97.16 6.58,93.96
             5.17,91.93 4.59,89.32 3.77,87.00
             1.02,79.20 -2.27,70.24 1.00,62.00
             1.00,62.00 6.95,79.00 6.95,79.00
             6.95,79.00 16.27,90.17 16.27,90.17
             16.27,90.17 22.11,100.57 22.11,100.57
             22.11,100.57 32.00,105.00 32.00,105.00
             32.20,110.89 36.14,113.77 42.00,113.72
             46.54,113.69 49.98,110.56 52.00,116.00
             65.29,115.87 66.29,108.81 71.00,115.00
             78.61,110.24 84.24,104.74 87.00,96.00
             87.00,96.00 93.00,98.00 93.00,98.00
             93.00,98.00 97.83,84.00 97.83,84.00
             97.83,84.00 99.60,77.06 99.60,77.06
             99.60,77.06 105.00,77.06 105.00,77.06
             105.00,77.06 107.00,55.00 107.00,55.00
             107.00,55.00 110.00,55.00 110.00,55.00 Z
           M 389.00,55.00
           C 389.00,55.00 391.00,77.06 391.00,77.06
             391.00,77.06 396.40,77.06 396.40,77.06
             396.40,77.06 398.17,84.00 398.17,84.00
             398.17,84.00 403.00,98.00 403.00,98.00
             403.00,98.00 409.00,96.00 409.00,96.00
             411.76,104.74 417.39,110.24 425.00,115.00
             429.71,108.81 430.71,115.87 444.00,116.00
             446.02,110.56 449.46,113.69 454.00,113.72
             459.86,113.77 463.80,110.89 464.00,105.00
             464.00,105.00 475.57,98.89 475.57,98.89
             475.57,98.89 480.43,89.28 480.43,89.28
             480.43,89.28 489.60,78.00 489.60,78.00
             489.60,78.00 496.00,62.00 496.00,62.00
             496.00,76.96 497.18,72.98 492.23,87.00
             491.41,89.32 490.83,91.93 489.42,93.96
             486.94,97.51 484.02,98.06 481.35,102.10
             478.91,105.80 475.00,116.03 471.67,117.94
             469.65,119.11 467.70,118.38 465.00,119.47
             460.56,121.25 450.30,131.41 445.41,128.88
             444.10,128.20 443.72,127.12 443.00,126.00
             428.85,130.60 431.54,128.11 419.00,128.00
             419.00,128.00 421.00,122.00 421.00,122.00
             414.65,118.96 399.43,112.09 395.61,106.73
             393.44,103.68 395.25,102.30 394.53,99.83
             393.93,97.77 390.58,93.94 389.16,92.00
             386.18,87.96 377.10,77.80 385.00,75.00
             385.00,75.00 386.00,55.00 386.00,55.00
             386.00,55.00 389.00,55.00 389.00,55.00 Z
           M 227.00,58.00
           C 223.97,62.71 222.29,65.23 222.04,71.00
             221.20,90.20 238.41,94.30 247.00,109.00
             247.00,109.00 249.00,109.00 249.00,109.00
             257.59,94.30 274.80,90.20 273.96,71.00
             273.71,65.23 272.03,62.71 269.00,58.00
             269.00,58.00 267.00,58.00 267.00,58.00
             260.97,70.72 257.94,70.91 253.27,80.00
             252.30,81.89 250.52,86.96 248.00,86.96
             245.48,86.96 243.70,81.89 242.73,80.00
             238.06,70.91 235.03,70.72 229.00,58.00
             229.00,58.00 227.00,58.00 227.00,58.00 Z
           M 164.01,96.00
           C 160.73,101.43 161.77,110.17 169.00,111.65
             173.47,112.56 178.86,108.95 183.00,107.60
             188.80,105.70 194.04,106.00 200.00,106.00
             197.31,98.34 188.71,106.32 182.18,102.74
             179.11,101.05 178.63,94.53 187.00,96.67
             187.00,96.67 193.00,98.00 193.00,98.00
             187.50,86.66 170.90,84.57 164.01,96.00 Z
           M 313.00,107.60
           C 317.14,108.95 322.53,112.56 327.00,111.65
             334.23,110.17 335.27,101.43 331.99,96.00
             325.10,84.57 308.50,86.66 303.00,98.00
             303.00,98.00 309.00,96.67 309.00,96.67
             317.37,94.53 316.89,101.05 313.82,102.74
             307.29,106.32 298.69,98.34 296.00,106.00
             301.96,106.00 307.20,105.70 313.00,107.60 Z
           M 241.73,115.09
           C 239.97,112.49 237.85,110.73 235.00,109.41
             225.18,104.87 212.33,113.63 211.25,124.00
             210.36,132.60 220.00,143.86 229.00,142.52
             240.59,140.78 239.61,124.21 230.96,122.49
             226.21,121.54 223.31,126.51 225.03,129.66
             226.18,131.77 228.92,131.78 231.00,132.00
             222.83,141.98 215.83,129.70 215.61,126.00
             215.29,120.50 226.62,106.25 236.61,118.05
             242.12,124.56 243.20,134.83 241.66,143.00
             240.96,146.77 238.85,149.54 239.15,151.87
             239.50,154.60 242.21,155.18 243.40,158.13
             244.50,160.84 243.18,169.80 248.00,169.80
             252.82,169.80 251.50,160.84 252.60,158.13
             253.79,155.18 256.50,154.60 256.85,151.87
             257.15,149.54 255.04,146.77 254.34,143.00
             252.80,134.83 253.88,124.56 259.39,118.05
             269.38,106.25 280.71,120.50 280.39,126.00
             280.17,129.70 273.17,141.98 265.00,132.00
             267.07,131.76 269.77,131.73 270.95,129.66
             272.71,126.56 269.81,121.53 265.04,122.49
             256.39,124.21 255.41,140.78 267.00,142.52
             276.00,143.86 285.64,132.60 284.75,124.00
             283.67,113.63 270.82,104.87 261.00,109.41
             258.15,110.73 256.03,112.49 254.27,115.09
             251.86,118.66 250.37,123.88 249.00,128.00
             249.00,128.00 247.00,128.00 247.00,128.00
             245.63,123.88 244.14,118.66 241.73,115.09 Z
           M 161.00,149.00
           C 152.65,149.02 145.91,148.76 138.00,145.55
             134.32,144.05 124.36,138.38 121.00,136.10
             117.08,133.44 116.62,132.46 112.07,130.00
             110.91,133.87 110.74,136.13 112.07,140.00
             113.79,144.62 117.18,146.95 113.00,150.00
             117.00,163.50 132.70,157.17 138.00,166.00
             128.17,166.77 119.29,166.34 111.00,160.24
             106.23,156.73 103.26,151.61 98.13,149.00
             98.13,149.00 98.13,164.00 98.13,164.00
             98.41,165.94 98.92,168.64 96.67,169.65
             94.08,170.81 85.42,165.97 82.00,165.00
             82.38,172.60 84.48,175.07 89.00,181.00
             96.70,191.10 100.88,193.40 113.00,196.47
             120.75,198.44 119.74,199.10 128.00,198.15
             133.85,197.48 143.66,195.15 147.00,190.00
             147.00,190.00 126.00,190.00 126.00,190.00
             126.00,190.00 131.00,186.00 131.00,186.00
             131.00,186.00 126.00,179.00 126.00,179.00
             137.42,176.26 135.30,181.88 141.10,184.26
             144.39,185.61 152.45,184.01 156.00,183.18
             158.52,182.58 161.47,181.74 162.27,178.90
             163.04,176.16 158.98,170.71 164.10,170.04
             168.92,169.40 168.43,175.05 168.00,178.00
             168.00,178.00 169.00,179.00 169.00,179.00
             178.06,176.33 185.98,164.75 194.98,166.40
             200.38,167.39 200.07,173.51 204.11,173.90
             205.95,174.07 209.16,172.05 211.00,171.30
             214.83,169.74 218.00,169.24 222.00,170.61
             234.45,174.90 238.63,195.96 220.00,197.00
             220.54,194.48 222.05,190.45 221.52,188.10
             219.86,180.82 207.19,182.54 207.15,192.00
             207.09,205.81 226.57,211.89 235.61,200.96
             245.65,188.82 240.80,171.45 229.91,161.76
             222.93,155.55 209.23,150.17 200.00,148.46
             200.00,148.46 185.00,146.32 185.00,146.32
             185.00,146.32 171.00,141.00 171.00,141.00
             171.00,149.21 168.31,148.99 161.00,149.00 Z
           M 375.00,136.10
           C 363.18,144.13 352.44,148.98 338.00,149.00
             330.06,149.01 325.00,150.67 325.00,141.00
             325.00,141.00 311.00,146.32 311.00,146.32
             311.00,146.32 296.00,148.46 296.00,148.46
             286.77,150.17 273.07,155.55 266.09,161.76
             255.20,171.45 250.35,188.82 260.39,200.96
             269.43,211.89 288.91,205.81 288.85,192.00
             288.81,182.54 276.14,180.82 274.48,188.10
             273.95,190.45 275.46,194.48 276.00,197.00
             257.37,195.96 261.55,174.90 274.00,170.61
             278.00,169.24 281.17,169.74 285.00,171.30
             286.84,172.05 290.05,174.07 291.89,173.90
             295.93,173.51 295.62,167.39 301.02,166.40
             310.02,164.75 317.94,176.33 327.00,179.00
             327.00,179.00 328.00,178.00 328.00,178.00
             327.56,174.97 327.07,169.49 331.91,170.01
             337.02,170.56 332.95,176.14 333.73,178.89
             334.53,181.74 337.47,182.58 340.00,183.18
             343.55,184.01 351.61,185.61 354.90,184.26
             360.70,181.88 358.58,176.26 370.00,179.00
             370.00,179.00 365.00,186.00 365.00,186.00
             365.00,186.00 370.00,190.00 370.00,190.00
             370.00,190.00 349.00,190.00 349.00,190.00
             352.34,195.15 362.15,197.48 368.00,198.15
             376.26,199.10 375.25,198.44 383.00,196.47
             395.12,193.40 399.30,191.10 407.00,181.00
             411.52,175.07 413.62,172.60 414.00,165.00
             410.58,165.97 401.92,170.81 399.33,169.65
             397.08,168.64 397.59,165.94 397.87,164.00
             397.87,164.00 397.87,149.00 397.87,149.00
             392.74,151.61 389.77,156.73 385.00,160.24
             376.71,166.34 367.83,166.77 358.00,166.00
             363.30,157.17 379.00,163.50 383.00,150.00
             378.82,146.95 382.21,144.62 383.93,140.00
             385.26,136.13 385.09,133.87 383.93,130.00
             379.38,132.46 378.92,133.44 375.00,136.10 Z
           M 12.00,142.99
           C 14.37,143.50 18.72,143.88 20.40,145.59
             22.88,148.12 22.72,159.36 18.09,159.39
             14.44,159.42 16.15,154.37 9.00,154.00
             11.57,162.86 7.23,161.99 0.00,162.00
             0.00,162.00 0.00,139.00 0.00,139.00
             0.00,139.00 12.00,142.99 12.00,142.99 Z
           M 477.91,159.39
           C 473.28,159.36 473.12,148.12 475.60,145.59
             477.28,143.88 481.63,143.50 484.00,142.99
             484.00,142.99 496.00,139.00 496.00,139.00
             496.00,139.00 496.00,162.00 496.00,162.00
             488.77,161.99 484.43,162.86 487.00,154.00
             479.85,154.37 481.56,159.42 477.91,159.39 Z
           M 222.97,232.00
           C 221.34,228.63 222.05,226.08 217.89,222.22
             214.58,219.15 212.14,219.41 209.46,216.70
             206.48,213.70 205.46,208.74 198.00,205.36
             198.00,205.36 192.00,203.04 192.00,203.04
             188.73,201.31 179.33,192.84 176.64,200.14
             174.44,206.12 184.97,210.58 189.00,212.77
             200.17,218.85 213.17,228.63 220.57,239.00
             220.57,239.00 227.00,250.00 227.00,250.00
             227.00,250.00 229.00,250.00 229.00,250.00
             230.89,240.65 225.80,237.87 222.97,232.00 Z
           M 275.43,239.00
           C 282.83,228.63 295.83,218.85 307.00,212.77
             311.03,210.58 321.56,206.12 319.36,200.14
             316.67,192.84 307.27,201.31 304.00,203.04
             304.00,203.04 298.00,205.36 298.00,205.36
             290.54,208.74 289.52,213.70 286.54,216.70
             283.86,219.41 281.42,219.15 278.11,222.22
             273.95,226.08 274.66,228.63 273.03,232.00
             270.20,237.87 265.11,240.65 267.00,250.00
             267.00,250.00 269.00,250.00 269.00,250.00
             269.00,250.00 275.43,239.00 275.43,239.00 Z
           M 62.04,202.25
           C 57.59,202.39 57.76,205.50 51.00,205.00
             47.08,210.34 42.71,212.20 41.92,215.10
             39.87,222.66 53.56,226.83 59.00,226.00
             59.00,226.00 56.00,219.00 56.00,219.00
             56.00,219.00 63.00,222.00 63.00,222.00
             63.00,222.00 62.00,217.00 62.00,217.00
             62.00,217.00 68.00,221.00 68.00,221.00
             68.00,221.00 67.00,215.00 67.00,215.00
             67.00,215.00 72.00,219.00 72.00,219.00
             72.00,219.00 78.00,218.00 78.00,218.00
             76.98,211.31 69.46,202.02 62.04,202.25 Z
           M 452.16,215.19
           C 450.79,210.98 437.47,203.21 433.00,203.65
             427.44,204.19 421.88,211.20 420.00,216.00
             420.00,216.00 428.00,214.98 428.00,214.98
             428.00,214.98 441.00,219.00 441.00,219.00
             441.00,219.00 440.00,225.00 440.00,225.00
             444.11,224.33 454.05,221.05 452.16,215.19 Z
           M 191.00,229.12
           C 187.88,226.66 184.40,224.83 181.00,222.80
             168.89,215.57 165.80,214.01 152.00,210.48
             134.77,206.07 114.01,208.00 96.00,208.00
             96.00,208.00 98.00,219.00 98.00,219.00
             88.27,220.37 67.42,224.19 62.23,233.04
             60.46,236.06 59.57,239.73 61.18,243.00
             63.44,247.58 67.90,249.08 70.49,252.21
             70.49,252.21 75.13,260.99 75.13,260.99
             78.16,265.63 80.39,266.03 83.68,269.32
             86.87,272.52 88.65,276.62 93.00,278.83
             100.15,282.44 109.45,278.35 116.00,275.48
             125.19,271.47 136.95,267.12 147.00,267.00
             163.39,266.81 185.25,272.51 199.00,281.59
             204.35,285.13 210.10,288.62 214.99,292.76
             219.29,296.40 220.54,299.36 226.00,301.00
             225.44,275.19 211.30,245.16 191.00,229.12 Z
           M 344.00,210.48
           C 330.20,214.01 327.11,215.57 315.00,222.80
             311.60,224.83 308.12,226.66 305.00,229.12
             284.70,245.16 270.56,275.19 270.00,301.00
             275.46,299.36 276.71,296.40 281.01,292.76
             285.90,288.62 291.65,285.13 297.00,281.59
             310.75,272.51 332.61,266.81 349.00,267.00
             359.05,267.12 370.81,271.47 380.00,275.48
             386.55,278.35 395.85,282.44 403.00,278.83
             407.35,276.62 409.13,272.52 412.32,269.32
             415.61,266.03 417.84,265.63 420.87,260.99
             420.87,260.99 425.51,252.21 425.51,252.21
             428.10,249.08 432.56,247.58 434.82,243.00
             436.43,239.73 435.54,236.06 433.77,233.04
             428.58,224.19 407.73,220.37 398.00,219.00
             398.00,219.00 400.00,208.00 400.00,208.00
             381.99,208.00 361.23,206.07 344.00,210.48 Z
           M 29.73,231.70
           C 28.12,233.39 28.03,235.59 27.48,237.72
             26.21,242.69 23.87,245.14 26.72,250.49
             26.72,250.49 29.18,254.32 29.18,254.32
             30.56,257.17 30.41,261.23 35.09,262.57
             39.34,263.78 45.69,261.41 48.89,258.61
             53.92,254.22 54.63,249.12 45.00,252.00
             45.00,252.00 50.00,246.00 50.00,246.00
             50.00,246.00 43.00,247.00 43.00,247.00
             43.00,247.00 50.00,240.00 50.00,240.00
             50.00,240.00 43.00,239.00 43.00,239.00
             49.91,236.73 52.14,236.77 54.00,229.00
             47.74,228.22 34.46,226.72 29.73,231.70 Z
           M 447.11,258.61
           C 450.31,261.41 456.66,263.78 460.91,262.57
             465.59,261.23 465.44,257.17 466.82,254.32
             466.82,254.32 469.28,250.49 469.28,250.49
             472.09,245.24 469.72,242.69 468.52,237.84
             467.98,235.68 467.90,233.42 466.27,231.70
             461.56,226.73 448.23,228.21 442.00,229.00
             444.01,237.38 446.62,236.08 453.00,240.00
             453.00,240.00 446.00,240.00 446.00,240.00
             446.00,240.00 453.00,247.00 453.00,247.00
             453.00,247.00 446.00,246.00 446.00,246.00
             446.00,246.00 451.00,252.00 451.00,252.00
             441.37,249.12 442.08,254.22 447.11,258.61 Z
           M 199.00,275.32
           C 195.28,273.56 181.52,268.38 179.33,266.30
             175.83,262.97 179.76,260.41 178.11,257.22
             176.54,254.20 168.36,252.65 165.00,251.10
             160.22,248.90 154.83,244.78 152.23,240.00
             151.65,238.39 150.65,235.41 152.23,233.83
             153.18,232.46 155.45,232.84 157.00,233.04
             157.00,233.04 170.00,234.04 170.00,234.04
             194.97,235.13 212.72,259.73 216.00,283.00
             208.77,282.19 205.40,278.35 199.00,275.32 Z
           M 326.00,234.04
           C 326.00,234.04 339.00,233.04 339.00,233.04
             340.55,232.84 342.82,232.46 343.77,233.83
             345.35,235.41 344.35,238.39 343.77,240.00
             341.17,244.78 335.78,248.90 331.00,251.10
             327.64,252.65 319.46,254.20 317.89,257.22
             316.24,260.41 320.17,262.97 316.67,266.30
             314.48,268.38 300.72,273.56 297.00,275.32
             290.60,278.35 287.23,282.19 280.00,283.00
             283.28,259.73 301.03,235.13 326.00,234.04 Z
           M 250.98,257.43
           C 256.71,255.79 256.81,250.32 253.69,247.74
             251.22,245.70 247.93,246.01 245.02,246.43
             235.01,250.69 242.24,259.93 250.98,257.43 Z
           M 37.33,273.00
           C 36.52,279.52 49.53,294.22 56.00,293.24
             59.96,292.65 62.28,288.62 65.00,286.00
             66.46,280.32 77.53,272.37 67.00,269.00
             67.00,269.00 62.00,274.00 62.00,274.00
             62.00,274.00 66.00,269.00 66.00,269.00
             64.30,264.22 62.52,265.60 59.00,268.00
             59.00,268.00 61.00,261.00 61.00,261.00
             61.00,261.00 55.00,263.00 55.00,263.00
             58.74,260.57 58.85,260.03 57.00,256.00
             50.45,259.13 38.35,264.86 37.33,273.00 Z
           M 441.00,264.00
           C 441.00,264.00 435.00,261.00 435.00,261.00
             435.00,261.00 437.00,268.00 437.00,268.00
             433.48,265.60 431.70,264.22 430.00,269.00
             430.00,269.00 434.00,274.00 434.00,274.00
             434.00,274.00 429.00,269.00 429.00,269.00
             418.40,272.39 429.65,280.30 431.00,286.00
             433.72,288.62 436.04,292.65 440.00,293.24
             446.47,294.22 459.48,279.52 458.67,273.00
             457.65,264.87 446.07,259.85 440.00,256.00
             436.45,259.74 437.67,260.69 441.00,264.00 Z
           M 255.08,282.00
           C 253.90,284.49 251.13,288.80 248.00,288.80
             244.87,288.80 242.10,284.49 240.92,282.00
             237.14,274.06 240.45,265.85 231.00,263.00
             231.00,263.00 232.00,275.00 232.00,275.00
             232.05,285.30 230.83,292.65 236.48,302.00
             238.66,305.61 243.36,311.55 248.00,311.55
             252.64,311.55 257.34,305.61 259.52,302.00
             265.01,292.91 263.98,286.01 264.00,276.00
             264.00,276.00 265.00,263.00 265.00,263.00
             255.55,265.85 258.86,274.06 255.08,282.00 Z
           M 158.00,272.58
           C 158.00,272.58 131.00,276.00 131.00,276.00
             131.00,276.00 134.00,285.00 134.00,285.00
             130.39,285.81 120.89,285.72 119.17,289.43
             116.88,294.35 128.38,300.34 132.00,301.53
             148.22,306.89 158.70,301.28 173.00,306.00
             168.86,306.69 168.29,306.96 167.00,311.00
             177.87,313.69 182.47,318.67 196.00,319.16
             204.77,319.47 220.74,320.76 227.00,327.00
             227.00,327.00 234.00,331.00 234.00,331.00
             234.95,324.45 228.16,317.10 224.37,312.00
             215.73,300.37 211.78,295.25 199.00,287.46
             199.00,287.46 175.00,275.00 175.00,275.00
             175.00,275.00 158.00,272.58 158.00,272.58 Z
           M 338.00,272.58
           C 338.00,272.58 321.00,275.00 321.00,275.00
             321.00,275.00 297.00,287.46 297.00,287.46
             284.22,295.25 280.27,300.37 271.63,312.00
             269.49,314.88 262.04,324.82 261.80,327.89
             261.66,329.62 262.25,329.82 263.00,331.00
             263.00,331.00 269.00,327.00 269.00,327.00
             275.26,320.76 291.23,319.47 300.00,319.16
             313.53,318.67 318.13,313.69 329.00,311.00
             327.66,306.79 326.91,306.80 323.00,305.00
             323.00,305.00 336.00,304.00 336.00,304.00
             346.42,303.95 353.84,304.89 364.00,301.53
             367.62,300.34 379.12,294.35 376.83,289.43
             375.11,285.72 365.61,285.81 362.00,285.00
             362.00,285.00 365.00,276.00 365.00,276.00
             365.00,276.00 338.00,272.58 338.00,272.58 Z
           M 75.00,281.80
           C 75.00,281.80 61.00,295.00 61.00,295.00
             61.19,297.25 60.86,301.07 61.60,302.87
             62.66,305.43 64.74,306.04 66.68,307.68
             73.49,313.43 68.28,311.48 77.83,315.50
             81.39,317.00 83.75,320.23 87.61,316.67
             91.36,313.22 93.76,303.04 93.96,298.00
             94.03,296.26 94.14,293.15 93.01,291.74
             91.94,290.41 90.50,290.34 89.00,290.00
             89.00,290.00 86.00,295.00 86.00,295.00
             86.00,295.00 87.00,287.00 87.00,287.00
             87.00,287.00 83.00,288.00 83.00,288.00
             83.00,288.00 80.00,292.00 80.00,292.00
             80.00,292.00 82.00,284.00 82.00,284.00
             82.00,284.00 77.00,287.00 77.00,287.00
             81.05,281.04 78.30,279.53 75.00,281.80 Z
           M 421.00,281.80
           C 417.70,279.53 414.95,281.04 419.00,287.00
             419.00,287.00 414.00,284.00 414.00,284.00
             414.00,284.00 416.00,292.00 416.00,292.00
             416.00,292.00 413.00,288.00 413.00,288.00
             413.00,288.00 409.00,287.00 409.00,287.00
             409.00,287.00 410.00,295.00 410.00,295.00
             410.00,295.00 407.00,290.00 407.00,290.00
             405.50,290.34 404.06,290.41 402.99,291.74
             401.86,293.15 401.97,296.26 402.04,298.00
             402.24,303.04 404.64,313.22 408.39,316.67
             412.25,320.23 414.61,317.00 418.17,315.50
             427.72,311.48 422.51,313.43 429.32,307.68
             431.26,306.03 433.34,305.43 434.40,302.87
             435.10,301.17 434.80,297.21 435.00,295.00
             435.00,295.00 421.00,281.80 421.00,281.80 Z
           M 189.00,295.46
           C 189.00,295.46 198.00,302.29 198.00,302.29
             198.00,302.29 208.00,309.00 208.00,309.00
             208.00,309.00 196.00,308.00 196.00,308.00
             196.00,308.00 197.00,305.00 197.00,305.00
             197.00,305.00 185.00,301.00 185.00,301.00
             185.00,301.00 188.00,300.00 188.00,300.00
             182.69,297.23 177.06,295.53 173.00,291.00
             173.00,291.00 189.00,295.46 189.00,295.46 Z
           M 299.00,301.63
           C 299.00,301.63 307.00,295.46 307.00,295.46
             307.00,295.46 323.00,291.00 323.00,291.00
             318.94,295.53 313.31,297.23 308.00,300.00
             308.00,300.00 311.00,302.00 311.00,302.00
             311.00,302.00 299.00,305.00 299.00,305.00
             299.00,305.00 300.00,308.00 300.00,308.00
             296.18,309.02 291.73,309.46 288.00,308.00
             288.00,308.00 299.00,301.63 299.00,301.63 Z
           M 109.00,294.00
           C 105.29,299.25 95.66,308.69 98.60,315.86
             100.04,319.35 102.75,318.09 104.00,322.00
             104.00,322.00 110.00,325.83 110.00,325.83
             111.32,326.44 122.03,328.54 123.18,328.16
             127.72,326.65 129.01,316.92 129.95,312.72
             130.30,311.01 131.12,308.28 129.95,306.74
             126.05,301.50 122.95,310.78 122.00,313.00
             122.00,313.00 124.00,305.00 124.00,305.00
             118.97,303.90 118.52,305.46 115.00,309.00
             115.00,309.00 115.00,300.00 115.00,300.00
             115.00,300.00 110.00,304.00 110.00,304.00
             112.40,299.51 112.97,298.83 111.00,294.00
             111.00,294.00 109.00,294.00 109.00,294.00 Z
           M 385.00,294.00
           C 383.03,298.83 383.60,299.51 386.00,304.00
             386.00,304.00 381.00,300.00 381.00,300.00
             381.00,300.00 381.00,309.00 381.00,309.00
             377.48,305.46 377.03,303.90 372.00,305.00
             372.00,305.00 373.00,313.00 373.00,313.00
             372.60,310.24 372.13,304.95 368.08,305.58
             367.28,305.70 366.52,306.09 366.07,306.74
             364.87,308.29 365.73,310.88 366.07,312.58
             367.01,316.68 368.24,326.65 372.68,328.16
             373.84,328.55 384.65,326.45 386.00,325.83
             386.00,325.83 392.00,322.00 392.00,322.00
             393.25,318.47 396.06,319.12 397.40,315.86
             400.34,308.68 390.72,299.26 387.00,294.00
             387.00,294.00 385.00,294.00 385.00,294.00 Z
           M 26.98,322.69
           C 28.16,321.77 29.68,320.19 30.57,319.00
             34.71,313.39 31.93,308.92 28.00,309.88
             24.39,310.77 22.48,314.72 21.68,318.00
             21.09,320.42 21.05,322.54 21.00,325.00
             23.74,324.56 24.67,324.48 26.98,322.69 Z
           M 474.32,318.00
           C 473.52,314.72 471.61,310.77 468.00,309.88
             464.07,308.92 461.29,313.39 465.43,319.00
             466.32,320.19 467.84,321.77 469.02,322.69
             471.33,324.48 472.26,324.56 475.00,325.00
             474.95,322.54 474.91,320.42 474.32,318.00 Z
           M 12.56,324.46
           C 17.04,320.00 9.88,316.27 9.84,323.04
             9.84,323.04 9.84,326.00 9.84,326.00
             10.67,325.64 11.47,325.55 12.56,324.46 Z
           M 486.16,323.04
           C 486.12,316.27 478.96,320.00 483.44,324.46
             484.53,325.55 485.33,325.64 486.16,326.00
             486.16,326.00 486.16,323.04 486.16,323.04 Z
           M 43.83,332.83
           C 46.50,331.32 49.57,327.17 49.55,324.02
             49.53,319.99 45.35,317.02 40.80,323.06
             39.94,324.20 39.16,325.64 38.70,327.00
             37.93,329.26 38.02,331.65 38.00,334.00
             40.12,333.88 41.90,333.91 43.83,332.83 Z
           M 457.30,327.00
           C 456.84,325.64 456.06,324.20 455.20,323.06
             450.65,317.02 446.47,319.99 446.45,324.02
             446.43,327.17 449.50,331.32 452.17,332.83
             454.10,333.91 455.88,333.88 458.00,334.00
             457.98,331.65 458.07,329.26 457.30,327.00 Z
           M 140.09,333.17
           C 136.27,339.14 138.89,346.79 144.99,345.43
             148.77,344.59 150.83,340.69 153.21,338.00
             157.13,333.56 159.89,331.75 165.00,329.00
             165.00,329.00 165.00,327.00 165.00,327.00
             157.54,324.88 144.66,326.03 140.09,333.17 Z
           M 342.79,338.00
           C 345.17,340.69 347.23,344.59 351.01,345.43
             358.89,347.19 358.72,336.66 355.30,332.30
             350.17,325.76 338.44,325.19 331.00,327.00
             331.00,327.00 331.00,329.00 331.00,329.00
             336.11,331.75 338.87,333.56 342.79,338.00 Z
           M 27.00,333.00
           C 27.00,333.00 28.00,334.00 28.00,334.00
             28.00,334.00 30.00,334.00 30.00,334.00
             30.00,334.00 32.00,329.00 32.00,329.00
             32.00,329.00 27.00,333.00 27.00,333.00 Z
           M 464.00,329.00
           C 464.00,329.00 466.00,334.00 466.00,334.00
             466.00,334.00 468.00,334.00 468.00,334.00
             468.00,334.00 469.00,333.00 469.00,333.00
             469.00,333.00 464.00,329.00 464.00,329.00 Z
           M 57.61,340.36
           C 63.28,335.12 59.29,328.00 54.27,332.36
             52.92,333.53 51.96,335.41 51.19,337.00
             50.24,338.97 49.59,340.91 49.00,343.00
             49.00,343.00 50.00,344.00 50.00,344.00
             52.72,343.22 55.48,342.34 57.61,340.36 Z
           M 444.81,337.00
           C 444.04,335.41 443.08,333.53 441.73,332.36
             436.71,328.00 432.72,335.12 438.39,340.36
             440.52,342.34 443.28,343.22 446.00,344.00
             446.00,344.00 447.00,343.00 447.00,343.00
             446.41,340.91 445.76,338.97 444.81,337.00 Z
           M 16.00,336.00
           C 16.00,336.00 15.00,340.00 15.00,340.00
             17.71,338.87 17.45,338.87 18.00,336.00
             18.00,336.00 16.00,336.00 16.00,336.00 Z
           M 481.00,340.00
           C 481.00,340.00 479.00,336.00 479.00,336.00
             478.13,338.73 478.42,338.95 481.00,340.00 Z
           M 167.00,342.95
           C 159.59,347.23 150.01,357.70 151.26,367.00
             151.71,370.29 154.14,373.21 155.85,376.00
             157.94,379.42 159.24,381.64 163.00,383.77
             165.93,385.03 169.82,385.49 172.83,383.77
             174.72,383.06 176.50,380.63 178.67,381.33
             180.68,381.99 181.70,385.32 186.02,387.43
             187.17,388.00 188.72,388.47 190.00,388.66
             199.21,390.03 198.50,384.18 198.05,378.00
             198.05,378.00 198.05,370.00 198.05,370.00
             198.16,356.96 206.63,353.84 218.00,351.92
             228.68,350.12 230.35,350.03 241.00,351.16
             241.00,351.16 248.00,351.92 248.00,351.92
             248.00,351.92 266.00,350.32 266.00,350.32
             266.00,350.32 283.00,352.90 283.00,352.90
             288.61,354.29 294.89,357.26 297.11,363.00
             298.13,365.64 298.00,369.19 298.00,372.00
             298.01,378.95 294.51,390.38 306.00,388.66
             307.28,388.47 308.83,388.00 309.98,387.43
             314.75,385.09 315.49,381.25 318.12,381.19
             319.81,381.16 321.53,383.18 323.17,384.17
             325.55,385.18 328.49,385.13 331.00,384.17
             335.76,382.87 337.70,379.99 340.15,376.00
             341.34,374.07 343.57,370.96 344.26,369.00
             346.19,363.53 342.63,356.31 339.39,352.00
             331.36,341.31 316.88,337.02 304.00,337.00
             287.85,336.97 280.79,338.04 265.00,340.28
             265.00,340.28 248.00,343.66 248.00,343.66
             248.00,343.66 231.00,340.28 231.00,340.28
             215.77,338.13 200.42,335.77 185.00,337.30
             179.59,338.31 171.72,340.23 167.00,342.95 Z
           M 104.98,346.95
           C 115.06,345.74 107.40,336.04 101.72,343.23
             100.67,344.56 100.52,345.51 100.00,346.95
             100.00,346.95 104.98,346.95 104.98,346.95 Z
           M 394.28,343.23
           C 388.60,336.04 380.94,345.74 391.02,346.95
             391.02,346.95 396.00,346.95 396.00,346.95
             395.48,345.51 395.33,344.56 394.28,343.23 Z
           M 27.00,348.00
           C 31.52,347.21 31.63,346.44 32.00,342.00
             27.59,342.76 27.51,343.72 27.00,348.00 Z
           M 464.00,342.00
           C 464.37,346.44 464.48,347.21 469.00,348.00
             468.49,343.72 468.41,342.76 464.00,342.00 Z
           M 82.00,351.00
           C 82.00,351.00 91.00,350.00 91.00,350.00
             88.76,343.62 84.53,346.83 82.00,351.00 Z
           M 405.00,350.00
           C 405.00,350.00 414.00,351.00 414.00,351.00
             411.47,346.83 407.24,343.62 405.00,350.00 Z
           M 71.22,348.78
           C 68.15,345.71 60.99,350.44 60.00,359.00
             70.38,358.42 74.18,351.74 71.22,348.78 Z
           M 424.78,348.78
           C 421.82,351.74 425.62,358.42 436.00,359.00
             435.01,350.44 427.85,345.71 424.78,348.78 Z
           M 52.00,354.00
           C 52.00,354.00 55.00,349.00 55.00,349.00
             52.05,350.72 52.03,350.59 52.00,354.00 Z
           M 444.00,354.00
           C 444.00,354.00 442.00,349.00 442.00,349.00
             441.05,351.99 441.59,352.20 444.00,354.00 Z
           M 36.00,356.00
           C 40.41,355.24 40.49,354.28 41.00,350.00
             37.15,351.48 36.90,352.01 36.00,356.00 Z
           M 455.00,350.00
           C 455.51,354.28 455.59,355.24 460.00,356.00
             459.10,352.01 458.85,351.48 455.00,350.00 Z
           M 113.00,359.96
           C 115.92,360.08 125.19,358.72 120.38,353.74
             117.48,350.73 109.31,351.58 107.00,359.00
             109.23,359.54 110.67,359.87 113.00,359.96 Z
           M 375.62,353.74
           C 370.81,358.72 380.08,360.08 383.00,359.96
             385.33,359.87 386.77,359.54 389.00,359.00
             386.69,351.58 378.52,350.73 375.62,353.74 Z
           M 90.73,372.00
           C 92.42,369.72 95.75,365.80 96.13,363.02
             96.84,357.68 90.91,356.83 87.00,357.10
             77.60,357.73 70.98,364.40 64.00,369.88
             41.92,387.22 28.68,422.38 29.00,450.00
             29.06,454.50 30.53,470.28 33.13,473.43
             34.14,474.65 34.72,474.54 36.00,475.00
             36.28,469.35 36.98,462.99 43.00,461.00
             43.00,461.00 41.83,478.00 41.83,478.00
             41.04,486.29 39.00,493.70 46.00,500.00
             46.00,500.00 51.85,478.14 51.85,478.14
             51.85,478.14 56.00,475.00 56.00,475.00
             56.00,475.00 52.09,496.00 52.09,496.00
             51.92,498.88 52.63,509.81 57.63,508.28
             60.73,507.33 60.92,500.66 61.51,498.00
             62.72,492.62 69.03,476.79 71.81,472.00
             77.95,461.44 84.47,451.31 94.00,443.46
             94.00,443.46 116.16,426.91 116.16,426.91
             120.13,421.02 121.76,404.55 111.00,405.23
             104.50,405.64 96.29,412.19 90.00,415.00
             91.60,405.23 98.33,400.46 106.00,395.03
             109.90,392.28 116.57,388.73 115.29,383.00
             114.88,381.12 113.25,378.56 112.07,376.94
             106.54,369.88 100.39,371.73 94.09,376.94
             87.89,381.87 82.44,391.79 75.00,394.00
             77.20,386.54 85.77,378.68 90.73,372.00 Z
           M 465.11,467.00
           C 466.68,460.13 467.08,450.11 467.00,443.00
             466.88,432.98 464.33,425.32 461.17,416.00
             455.18,398.32 447.07,381.72 432.00,369.88
             425.02,364.40 418.40,357.73 409.00,357.10
             405.09,356.83 399.16,357.68 399.87,363.02
             400.25,365.80 403.58,369.72 405.27,372.00
             410.23,378.68 418.80,386.54 421.00,394.00
             413.56,391.79 408.11,381.87 401.91,376.85
             399.15,374.61 394.70,372.00 391.00,372.33
             386.04,372.76 379.34,380.99 380.70,386.00
             381.80,390.04 387.74,393.38 391.00,395.74
             398.39,401.10 404.45,405.55 406.00,415.00
             399.09,412.35 391.57,404.97 384.00,405.20
             373.93,405.50 376.15,422.46 380.51,427.82
             380.51,427.82 402.00,443.46 402.00,443.46
             410.88,450.77 416.54,459.27 422.40,469.00
             426.59,475.97 432.21,489.13 434.24,497.00
             434.97,499.81 435.19,507.31 438.37,508.28
             443.37,509.81 444.08,498.88 443.91,496.00
             443.91,496.00 440.00,475.00 440.00,475.00
             440.00,475.00 444.15,478.14 444.15,478.14
             444.15,478.14 450.00,500.00 450.00,500.00
             457.00,493.70 454.96,486.29 454.17,478.00
             454.17,478.00 453.00,461.00 453.00,461.00
             459.02,462.99 459.72,469.35 460.00,475.00
             464.18,473.49 464.17,471.13 465.11,467.00 Z
           M 45.00,365.00
           C 48.54,363.69 48.81,363.60 50.00,360.00
             46.12,360.89 45.68,361.04 45.00,365.00 Z
           M 446.00,360.00
           C 447.19,363.60 447.46,363.69 451.00,365.00
             450.32,361.04 449.88,360.89 446.00,360.00 Z
           M 104.00,366.00
           C 104.00,366.00 110.00,365.00 110.00,365.00
             107.05,362.29 105.51,361.88 104.00,366.00 Z
           M 386.00,365.00
           C 386.00,365.00 392.00,366.00 392.00,366.00
             390.49,361.88 388.95,362.29 386.00,365.00 Z
           M 122.00,372.96
           C 122.00,372.96 127.00,372.96 127.00,372.96
             132.80,372.25 134.87,368.28 132.38,365.74
             129.30,362.60 122.76,365.53 120.31,368.22
             118.73,369.96 118.62,370.90 118.00,372.96
             118.00,372.96 122.00,372.96 122.00,372.96 Z
           M 375.69,368.22
           C 373.24,365.53 366.70,362.60 363.62,365.74
             361.13,368.28 363.20,372.25 369.00,372.96
             369.00,372.96 374.00,372.96 374.00,372.96
             374.00,372.96 378.00,372.96 378.00,372.96
             377.38,370.90 377.27,369.96 375.69,368.22 Z
           M 243.89,375.15
           C 243.89,375.15 241.08,394.00 241.08,394.00
             236.54,410.13 221.37,422.65 227.36,441.00
             228.27,443.78 229.45,446.66 231.39,448.89
             237.12,455.47 256.29,455.99 262.90,450.57
             266.91,447.28 269.55,440.10 269.90,435.00
             271.15,416.89 256.71,407.93 253.44,387.00
             252.56,381.39 254.85,371.27 246.27,372.62
             244.90,373.64 244.72,373.30 243.89,375.15 Z
           M 210.23,390.00
           C 208.17,393.24 206.79,398.47 210.23,401.25
             213.92,404.10 219.02,401.23 221.90,398.66
             228.37,392.87 230.92,382.36 231.00,374.00
             223.10,375.10 214.20,383.33 210.23,390.00 Z
           M 274.10,398.66
           C 276.98,401.23 282.08,404.10 285.77,401.25
             289.21,398.47 287.83,393.24 285.77,390.00
             281.80,383.33 272.90,375.10 265.00,374.00
             265.08,382.36 267.63,392.87 274.10,398.66 Z
           M 135.00,386.21
           C 137.68,386.76 142.31,387.54 143.18,383.90
             143.45,382.74 143.04,381.58 142.24,380.74
             139.14,377.45 130.92,380.29 128.59,382.69
             127.41,383.92 127.48,384.56 127.00,386.21
             127.00,386.21 135.00,386.21 135.00,386.21 Z
           M 367.41,382.69
           C 365.08,380.29 356.86,377.45 353.76,380.74
             352.96,381.58 352.55,382.74 352.82,383.90
             353.69,387.54 358.32,386.76 361.00,386.21
             361.00,386.21 369.00,386.21 369.00,386.21
             368.52,384.56 368.59,383.92 367.41,382.69 Z
           M 117.00,396.00
           C 117.00,396.00 125.00,396.00 125.00,396.00
             125.00,396.00 125.00,394.00 125.00,394.00
             120.89,393.07 120.13,393.13 117.00,396.00 Z
           M 371.00,394.00
           C 371.00,394.00 371.00,396.00 371.00,396.00
             374.79,397.03 375.75,397.38 379.00,395.00
             375.26,393.31 375.03,393.09 371.00,394.00 Z
           M 141.00,401.57
           C 144.17,402.46 149.65,403.98 151.07,399.78
             151.62,398.65 151.55,397.35 151.07,396.20
             148.66,392.49 140.19,394.17 137.11,396.20
             135.53,397.07 135.17,397.70 134.00,399.00
             134.00,399.00 141.00,401.57 141.00,401.57 Z
           M 358.89,396.20
           C 355.81,394.17 347.34,392.49 344.93,396.20
             344.45,397.35 344.38,398.65 344.93,399.78
             346.35,403.98 351.83,402.46 355.00,401.57
             355.00,401.57 362.00,399.00 362.00,399.00
             360.83,397.70 360.47,397.07 358.89,396.20 Z
           M 128.00,416.00
           C 128.00,416.00 138.00,415.00 138.00,415.00
             135.79,408.35 129.25,408.75 128.00,416.00 Z
           M 358.00,415.00
           C 358.00,415.00 368.00,416.00 368.00,416.00
             366.75,408.75 360.21,408.35 358.00,415.00 Z
           M 252.50,423.00
           C 260.25,429.25 256.74,438.56 250.00,440.31
             244.21,441.81 238.79,436.55 238.26,431.00
             238.06,428.86 241.89,424.31 242.25,422.25
             237.75,421.50 241.35,415.77 247.07,412.96
             252.24,413.16 259.25,422.00 252.50,423.00 Z
           M 178.04,424.78
           C 178.81,421.68 175.16,417.73 171.00,418.84
             167.48,419.78 162.00,424.94 160.00,428.00
             163.51,428.53 176.97,429.07 178.04,424.78 Z
           M 325.00,418.84
           C 320.84,417.73 317.19,421.68 317.96,424.78
             319.03,429.07 332.49,428.53 336.00,428.00
             334.00,424.94 328.52,419.78 325.00,418.84 Z
           M 153.19,440.91
           C 153.45,437.46 148.66,427.28 142.00,426.57
             138.76,426.23 133.83,428.64 131.00,430.16
             108.99,441.93 97.59,451.80 82.51,472.00
             75.02,482.04 70.58,494.53 70.04,507.00
             69.72,514.43 71.13,521.64 71.92,529.00
             71.92,529.00 71.92,540.00 71.92,540.00
             81.48,536.86 76.08,524.26 86.00,521.00
             84.51,527.37 81.07,533.32 81.06,540.00
             81.05,541.97 81.51,546.64 84.67,545.51
             86.63,544.81 88.33,540.78 89.26,539.00
             91.92,533.90 93.22,530.74 99.00,529.00
             95.80,539.13 87.64,548.05 91.00,560.00
             96.79,557.10 98.28,552.24 101.69,547.00
             106.42,539.75 108.94,537.07 115.00,531.00
             124.24,521.74 130.02,516.56 142.00,510.78
             142.00,510.78 162.49,501.49 162.49,501.49
             166.94,496.97 165.23,485.03 158.96,482.89
             156.93,482.05 149.89,482.97 147.00,482.89
             149.72,474.24 158.86,475.94 163.26,469.79
             166.08,465.85 163.29,452.41 157.89,451.75
             154.26,451.31 146.18,455.58 140.00,456.00
             142.86,446.36 152.72,447.15 153.19,440.91 Z
           M 424.08,529.00
           C 424.87,521.64 426.28,514.43 425.96,507.00
             425.42,494.53 420.98,482.04 413.49,472.00
             398.41,451.80 387.01,441.93 365.00,430.16
             362.17,428.64 357.24,426.23 354.00,426.57
             347.34,427.28 342.55,437.46 342.81,440.91
             343.28,447.15 353.14,446.36 356.00,456.00
             349.82,455.58 341.74,451.31 338.11,451.75
             332.71,452.41 329.92,465.85 332.74,469.79
             337.14,475.94 346.28,474.24 349.00,482.89
             346.11,482.97 339.07,482.05 337.04,482.89
             330.77,485.03 329.06,496.97 333.51,501.49
             333.51,501.49 354.00,510.78 354.00,510.78
             365.98,516.56 371.76,521.74 381.00,531.00
             387.06,537.07 389.58,539.75 394.31,547.00
             397.72,552.24 399.21,557.10 405.00,560.00
             408.36,548.05 400.20,539.13 397.00,529.00
             402.78,530.74 404.08,533.90 406.74,539.00
             407.67,540.78 409.37,544.81 411.33,545.51
             414.49,546.64 414.95,541.97 414.94,540.00
             414.93,533.32 411.49,527.37 410.00,521.00
             419.92,524.26 414.52,536.86 424.08,540.00
             424.08,540.00 424.08,529.00 424.08,529.00 Z
           M 180.00,448.00
           C 191.01,447.79 189.27,439.87 186.57,438.22
             182.98,436.02 173.94,441.36 171.99,444.46
             171.15,445.81 171.24,446.58 171.00,448.00
             171.00,448.00 180.00,448.00 180.00,448.00 Z
           M 324.01,444.46
           C 322.06,441.36 313.02,436.02 309.43,438.22
             306.51,440.01 306.86,444.92 310.23,446.98
             312.23,448.20 315.69,448.00 318.00,448.00
             318.00,448.00 325.00,448.00 325.00,448.00
             324.76,446.58 324.85,445.81 324.01,444.46 Z
           M 161.00,442.00
           C 164.81,441.35 164.92,441.25 167.00,438.00
             163.24,438.63 162.89,438.65 161.00,442.00 Z
           M 329.00,438.00
           C 331.08,441.25 331.19,441.35 335.00,442.00
             333.11,438.65 332.76,438.63 329.00,438.00 Z
           M 231.93,463.00
           C 228.30,456.52 220.56,452.62 214.04,457.57
             212.28,458.91 210.48,460.87 209.78,463.00
             208.48,466.96 211.43,469.42 212.00,473.00
             218.31,476.90 221.55,481.48 221.00,489.00
             221.00,489.00 231.93,481.00 231.93,481.00
             232.48,474.42 235.56,469.71 231.93,463.00 Z
           M 286.22,463.00
           C 285.63,461.20 284.29,459.59 282.89,458.34
             276.61,452.72 269.03,455.50 264.72,462.02
             260.12,468.97 263.56,474.01 264.00,481.00
             264.00,481.00 275.00,489.00 275.00,489.00
             274.45,481.48 277.69,476.90 284.00,473.00
             284.61,469.44 287.51,466.94 286.22,463.00 Z
           M 171.00,461.00
           C 175.39,461.75 176.57,461.30 178.00,457.00
             173.76,457.35 173.32,457.38 171.00,461.00 Z
           M 318.00,457.00
           C 319.43,461.30 320.61,461.75 325.00,461.00
             322.68,457.38 322.24,457.35 318.00,457.00 Z
           M 195.77,473.26
           C 199.77,471.42 199.93,464.97 194.89,463.43
             189.32,461.73 182.99,464.89 178.00,467.00
             178.00,467.00 178.00,470.00 178.00,470.00
             182.59,471.37 191.38,475.29 195.77,473.26 Z
           M 298.18,465.43
           C 297.34,466.68 297.12,468.45 297.47,469.95
             299.40,477.87 313.23,471.42 318.00,469.95
             318.00,469.95 318.00,467.00 318.00,467.00
             313.48,465.08 301.94,459.82 298.18,465.43 Z
           M 224.00,483.00
           C 224.00,483.00 222.00,467.00 222.00,467.00
             225.75,471.05 227.43,478.34 224.00,483.00 Z
           M 271.00,483.00
           C 269.33,477.06 270.41,472.49 273.00,467.00
             273.00,467.00 271.00,483.00 271.00,483.00 Z
           M 172.00,483.00
           C 172.00,483.00 182.00,484.00 182.00,484.00
             179.51,479.34 174.26,476.56 172.00,483.00 Z
           M 314.00,484.00
           C 314.00,484.00 324.00,483.00 324.00,483.00
             321.74,476.56 316.49,479.34 314.00,484.00 Z
           M 27.90,496.00
           C 28.17,498.75 27.51,504.55 29.02,506.64
             31.16,509.62 35.70,507.50 35.72,502.00
             35.74,497.82 32.34,488.45 29.89,485.03
             27.12,481.20 23.88,479.66 22.00,485.03
             25.59,488.17 27.42,491.13 27.90,496.00 Z
           M 466.11,485.03
           C 463.66,488.45 460.26,497.82 460.28,502.00
             460.30,507.50 464.84,509.62 466.98,506.64
             468.49,504.55 467.83,498.75 468.10,496.00
             468.58,491.13 470.41,488.17 474.00,485.03
             472.12,479.66 468.88,481.20 466.11,485.03 Z
           M 247.00,484.00
           C 243.41,490.45 235.45,503.66 237.43,511.00
             239.07,517.06 242.69,517.56 248.00,517.56
             252.94,517.56 256.16,517.43 258.26,512.00
             261.17,504.48 252.68,490.62 249.00,484.00
             249.00,484.00 247.00,484.00 247.00,484.00 Z
           M 196.96,506.50
           C 202.06,505.87 203.99,497.99 197.89,494.09
             191.87,490.24 183.98,492.38 178.00,495.00
             178.00,495.00 178.00,497.00 178.00,497.00
             181.97,499.28 193.06,506.98 196.96,506.50 Z
           M 298.11,494.09
           C 292.01,497.99 293.94,505.87 299.04,506.50
             302.94,506.98 314.03,499.28 318.00,497.00
             318.00,497.00 318.00,495.00 318.00,495.00
             312.02,492.38 304.13,490.24 298.11,494.09 Z
           M 15.02,511.46
           C 13.56,513.70 13.91,519.38 14.30,522.00
             15.92,532.98 23.51,543.07 34.00,547.01
             42.60,550.24 50.17,546.38 56.99,541.50
             60.24,539.17 63.80,536.49 63.72,532.00
             63.69,530.17 59.06,519.81 57.69,518.58
             57.69,518.58 52.54,515.44 52.54,515.44
             52.54,515.44 49.46,511.79 49.46,511.79
             45.25,508.78 41.87,515.49 37.00,517.26
             30.27,519.70 24.73,512.08 22.00,507.00
             19.59,507.98 16.51,509.17 15.02,511.46 Z
           M 459.00,517.26
           C 454.13,515.49 450.75,508.78 446.54,511.79
             446.54,511.79 443.46,515.44 443.46,515.44
             443.46,515.44 438.31,518.58 438.31,518.58
             436.94,519.81 432.31,530.17 432.28,532.00
             432.20,536.49 435.76,539.17 439.01,541.50
             445.83,546.38 453.40,550.24 462.00,547.01
             472.49,543.07 480.08,532.98 481.70,522.00
             482.09,519.38 482.44,513.70 480.98,511.46
             479.49,509.17 476.41,507.98 474.00,507.00
             471.27,512.08 465.73,519.70 459.00,517.26 Z
           M 37.00,533.00
           C 29.35,532.90 24.62,530.63 22.00,523.00
             27.40,523.82 35.22,527.57 37.00,533.00 Z
           M 474.00,523.00
           C 471.38,530.63 466.65,532.90 459.00,533.00
             460.78,527.57 468.60,523.82 474.00,523.00 Z
           M 204.00,544.69
           C 207.85,547.58 211.91,547.37 212.76,541.98
             213.82,535.24 206.79,530.07 201.00,528.56
             198.38,527.87 194.75,528.00 192.00,528.00
             192.93,533.75 199.38,541.20 204.00,544.69 Z
           M 283.24,539.01
           C 282.32,544.94 286.26,550.30 293.96,542.94
             293.96,542.94 299.27,537.00 299.27,537.00
             301.99,533.81 302.99,532.75 305.00,529.00
             297.27,526.80 284.63,530.03 283.24,539.01 Z
           M 248.00,547.14
           C 251.42,547.14 254.11,541.64 248.00,539.86
             241.89,541.64 244.58,547.14 248.00,547.14 Z
           M 183.14,546.61
           C 183.94,547.33 185.03,548.07 186.00,548.53
             195.19,552.94 195.08,540.47 185.00,540.52
             182.86,540.54 181.85,541.18 180.00,542.00
             181.01,544.08 181.31,544.98 183.14,546.61 Z
           M 311.00,540.52
           C 300.92,540.47 300.81,552.94 310.00,548.53
             310.97,548.07 312.06,547.33 312.86,546.61
             314.69,544.98 314.99,544.08 316.00,542.00
             314.15,541.18 313.14,540.54 311.00,540.52 Z
           M 8.16,558.00
           C 12.19,569.87 12.27,593.02 0.00,600.00
             0.00,600.00 0.00,545.00 0.00,545.00
             4.83,548.01 6.39,552.77 8.16,558.00 Z
           M 496.00,563.00
           C 496.00,563.00 496.00,600.00 496.00,600.00
             489.50,596.31 488.53,591.88 486.88,585.00
             485.89,580.82 484.85,576.31 485.09,572.00
             485.59,563.28 488.71,551.25 495.00,545.00
             495.00,545.00 496.00,563.00 496.00,563.00 Z
           M 203.01,574.57
           C 205.47,576.40 208.86,577.73 211.49,575.40
             214.74,572.51 213.55,568.06 210.77,565.39
             206.66,561.43 197.60,558.86 192.00,558.00
             193.39,563.70 198.30,571.06 203.01,574.57 Z
           M 285.23,565.39
           C 282.45,568.06 281.26,572.51 284.51,575.40
             287.14,577.73 290.53,576.40 292.99,574.57
             297.70,571.06 302.61,563.70 304.00,558.00
             298.40,558.86 289.34,561.43 285.23,565.39 Z
           M 177.31,569.67
           C 178.23,570.67 179.79,571.80 181.00,572.42
             188.96,576.43 190.66,566.19 181.00,565.05
             181.00,565.05 175.00,565.05 175.00,565.05
             175.64,567.13 175.69,567.91 177.31,569.67 Z
           M 239.74,581.57
           C 242.12,584.42 249.63,584.54 252.96,583.57
             262.18,580.89 255.43,567.68 250.82,565.59
             248.96,564.96 247.94,565.26 246.09,565.59
             241.29,567.57 235.65,576.66 239.74,581.57 Z
           M 315.00,565.05
           C 305.34,566.19 307.04,576.43 315.00,572.42
             316.21,571.80 317.77,570.67 318.69,569.67
             320.31,567.91 320.36,567.13 321.00,565.05
             321.00,565.05 315.00,565.05 315.00,565.05 Z
           M 175.78,593.12
           C 178.88,592.24 178.99,588.44 177.81,586.01
             176.07,582.44 173.19,580.55 169.33,580.71
             164.80,584.48 171.31,594.38 175.78,593.12 Z
           M 317.78,587.01
           C 316.80,589.97 318.35,593.95 322.00,593.18
             325.59,592.41 332.67,581.31 324.94,580.66
             321.75,581.85 318.94,583.53 317.78,587.01 Z
           M 186.28,590.00
           C 187.59,593.05 190.38,602.70 194.94,600.83
             199.03,599.16 200.36,593.55 198.25,590.00
             194.96,584.49 189.24,581.36 183.00,581.00
             183.89,584.29 184.94,586.88 186.28,590.00 Z
           M 296.84,592.00
           C 295.64,596.24 300.03,602.44 303.62,600.83
             306.07,599.73 308.61,592.57 309.72,590.00
             311.06,586.88 312.11,584.29 313.00,581.00
             306.83,581.36 298.67,585.55 296.84,592.00 Z
           M 250.96,600.69
           C 257.96,598.83 255.84,589.77 247.00,589.54
             236.09,593.46 241.07,603.30 250.96,600.69 Z" />
</svg>
